<svg xmlns="http://www.w3.org/2000/svg" xmlns:xlink="http://www.w3.org/1999/xlink" width="728" height="640.019" viewBox="0 0 728 640.019">
  <defs>
    <clipPath id="clip-path">
      <path id="Path_2148" data-name="Path 2148" d="M267.589,76.944c-45.688,11.075-77.676,112.7-130.142,60.917-33.228-31.843-80.3-13.844-89.992,30.459-2.769,16.614-1.384,36,4.153,51.225,13.845,41.536,56.764,34.612,89.992,52.611,23.536,11.077,36,33.229,62.3,40.151,34.613,6.921,99.683-1.384,103.837-45.688,1.384-20.768-11.077-40.149-8.307-59.534,5.538-26.305,30.458-33.227,40.15-53.994,18.6-42.154-19.424-77.646-58.4-77.644a61.773,61.773,0,0,0-13.6,1.5" fill="none" stroke="#eef5f6" stroke-width="1"/>
    </clipPath>
  </defs>
  <g id="cotopiahero" transform="translate(1)">
    <g id="Group_6828" data-name="Group 6828" transform="translate(346.929 325.553)">
      <g id="Group_6827" data-name="Group 6827" clip-path="url(#clip-path)">
        <line id="Line_17" data-name="Line 17" y1="300.422" x2="314.607" transform="translate(-160.45 52.52)" fill="none" stroke="#eef5f6" stroke-miterlimit="10" stroke-width="3"/>
        <line id="Line_18" data-name="Line 18" y1="300.422" x2="314.609" transform="translate(-135.369 52.52)" fill="none" stroke="#eef5f6" stroke-miterlimit="10" stroke-width="3"/>
        <line id="Line_19" data-name="Line 19" y1="300.422" x2="314.607" transform="translate(-110.285 52.52)" fill="none" stroke="#eef5f6" stroke-miterlimit="10" stroke-width="3"/>
        <line id="Line_20" data-name="Line 20" y1="300.422" x2="314.607" transform="translate(-85.204 52.52)" fill="none" stroke="#eef5f6" stroke-miterlimit="10" stroke-width="3"/>
        <line id="Line_21" data-name="Line 21" y1="300.422" x2="314.607" transform="translate(-60.12 52.52)" fill="none" stroke="#eef5f6" stroke-miterlimit="10" stroke-width="3"/>
        <line id="Line_22" data-name="Line 22" y1="300.422" x2="314.607" transform="translate(-35.037 52.52)" fill="none" stroke="#eef5f6" stroke-miterlimit="10" stroke-width="3"/>
        <line id="Line_23" data-name="Line 23" y1="300.422" x2="314.608" transform="translate(-9.956 52.52)" fill="none" stroke="#eef5f6" stroke-miterlimit="10" stroke-width="3"/>
        <line id="Line_24" data-name="Line 24" y1="300.422" x2="314.607" transform="translate(15.127 52.52)" fill="none" stroke="#eef5f6" stroke-miterlimit="10" stroke-width="3"/>
        <line id="Line_25" data-name="Line 25" y1="300.422" x2="314.606" transform="translate(40.21 52.52)" fill="none" stroke="#eef5f6" stroke-miterlimit="10" stroke-width="3"/>
        <line id="Line_26" data-name="Line 26" y1="300.422" x2="314.608" transform="translate(65.292 52.52)" fill="none" stroke="#eef5f6" stroke-miterlimit="10" stroke-width="3"/>
        <line id="Line_27" data-name="Line 27" y1="300.422" x2="314.608" transform="translate(90.375 52.52)" fill="none" stroke="#eef5f6" stroke-miterlimit="10" stroke-width="3"/>
        <line id="Line_28" data-name="Line 28" y1="300.422" x2="314.607" transform="translate(115.457 52.52)" fill="none" stroke="#eef5f6" stroke-miterlimit="10" stroke-width="3"/>
        <line id="Line_29" data-name="Line 29" y1="300.422" x2="314.61" transform="translate(140.538 52.52)" fill="none" stroke="#eef5f6" stroke-miterlimit="10" stroke-width="3"/>
        <line id="Line_30" data-name="Line 30" y1="300.422" x2="314.608" transform="translate(165.621 52.52)" fill="none" stroke="#eef5f6" stroke-miterlimit="10" stroke-width="3"/>
        <line id="Line_31" data-name="Line 31" y1="300.422" x2="314.608" transform="translate(190.704 52.52)" fill="none" stroke="#eef5f6" stroke-miterlimit="10" stroke-width="3"/>
        <line id="Line_32" data-name="Line 32" y1="300.422" x2="314.607" transform="translate(215.786 52.52)" fill="none" stroke="#eef5f6" stroke-miterlimit="10" stroke-width="3"/>
        <line id="Line_33" data-name="Line 33" y1="300.422" x2="314.608" transform="translate(240.869 52.52)" fill="none" stroke="#eef5f6" stroke-miterlimit="10" stroke-width="3"/>
      </g>
    </g>
    <g id="Ellipse_261" data-name="Ellipse 261" transform="translate(582 64)" fill="#e77623" stroke="#000" stroke-width="2">
      <circle cx="10.5" cy="10.5" r="10.5" stroke="none"/>
      <circle cx="10.5" cy="10.5" r="9.5" fill="none"/>
    </g>
    <g id="Group_6734" data-name="Group 6734" transform="translate(-866.316 -62.578)">
      <path id="Path_2058" data-name="Path 2058" d="M1274.1,472.413c-60,0-46-68.56-46-68.56,0,11.61,20.85,16.45,26.66,9.68s19.36-6.3,19.36-6.3,13.56-.48,19.36,6.3,26.69,1.93,26.66-9.68C1320.119,403.853,1334.129,472.413,1274.1,472.413Z" stroke="#040505" stroke-linecap="round" stroke-linejoin="round" stroke-width="2"/>
      <path id="Path_2059" data-name="Path 2059" d="M1281.164,395.182a7.1,7.1,0,0,1-14.2,0" fill="none" stroke="#040505" stroke-linecap="round" stroke-linejoin="round" stroke-width="2"/>
      <path id="Path_2060" data-name="Path 2060" d="M1228.083,403.853a13.014,13.014,0,0,1,0-26.018Z" fill="none" stroke="#040505" stroke-linecap="round" stroke-linejoin="round" stroke-width="2"/>
      <path id="Path_2061" data-name="Path 2061" d="M1320.118,403.853a13.014,13.014,0,0,0,0-26.018Z" fill="none" stroke="#040505" stroke-linecap="round" stroke-linejoin="round" stroke-width="2"/>
      <g id="Group_7644" data-name="Group 7644">
        <circle id="Ellipse_252" data-name="Ellipse 252" cx="11.71" cy="11.71" r="11.71" transform="translate(1236.828 372.933)" stroke-width="2" stroke="#040505" stroke-linecap="round" stroke-linejoin="round" fill="none"/>
        <circle id="Ellipse_253" data-name="Ellipse 253" cx="11.71" cy="11.71" r="11.71" transform="translate(1287.948 372.933)" stroke-width="2" stroke="#040505" stroke-linecap="round" stroke-linejoin="round" fill="none"/>
        <line id="Line_1" data-name="Line 1" x1="8.75" transform="translate(1228.078 384.643)" fill="none" stroke="#040505" stroke-linecap="round" stroke-linejoin="round" stroke-width="2"/>
        <line id="Line_2" data-name="Line 2" x1="8.75" transform="translate(1311.369 384.643)" fill="none" stroke="#040505" stroke-linecap="round" stroke-linejoin="round" stroke-width="2"/>
      </g>
      <path id="Path_2064" data-name="Path 2064" d="M1099.708,593.293h82l-11.63-111.76S1112.719,529.533,1099.708,593.293Z" fill="#e77623" stroke="#040505" stroke-linecap="round" stroke-linejoin="round" stroke-width="2"/>
      <path id="Path_2065" data-name="Path 2065" d="M1378.118,481.533s57.37,48,70.37,111.76h-82" fill="#e77623" stroke="#040505" stroke-linecap="round" stroke-linejoin="round" stroke-width="2"/>
      <path id="Path_2066" data-name="Path 2066" d="M1378.118,567.343l24.433-14.445m-232.472,14.445L1148,552.9" fill="none" stroke="#040505" stroke-linecap="round" stroke-linejoin="round" stroke-width="2"/>
      <rect id="Rectangle_1968" data-name="Rectangle 1968" width="208.03" height="132.5" rx="8" transform="translate(1170.078 462.793)" fill="#141313" stroke="#fff" stroke-width="2"/>
      <g id="Group_6733" data-name="Group 6733">
        <g id="Group_6732" data-name="Group 6732">
          <path id="Path_2071" data-name="Path 2071" d="M1309.041,333.1a18.351,18.351,0,0,0-17.819-14.011h-3.059a14.351,14.351,0,0,0-13.758-10.288h-4.039a14.349,14.349,0,0,0-13.758,10.288h-2.437a18.357,18.357,0,0,0-17.924,14.419,13.845,13.845,0,0,0,4.282,27.012h65.765a13.848,13.848,0,0,0,2.747-27.42Z" fill="#fff" stroke="#040505" stroke-linecap="round" stroke-miterlimit="10" stroke-width="2"/>
          <line id="Line_3" data-name="Line 3" x2="10.13" transform="translate(1236.247 333.508)" fill="none" stroke="#040505" stroke-linecap="round" stroke-miterlimit="10" stroke-width="2"/>
          <line id="Line_4" data-name="Line 4" x2="10.13" transform="translate(1299.034 333.071)" fill="none" stroke="#040505" stroke-linecap="round" stroke-miterlimit="10" stroke-width="2"/>
          <line id="Line_5" data-name="Line 5" y2="10.13" transform="translate(1256.829 318.935)" fill="none" stroke="#040505" stroke-linecap="round" stroke-miterlimit="10" stroke-width="2"/>
          <line id="Line_6" data-name="Line 6" y2="10.13" transform="translate(1288.046 318.935)" fill="none" stroke="#040505" stroke-linecap="round" stroke-miterlimit="10" stroke-width="2"/>
        </g>
        <path id="Path_2069" data-name="Path 2069" d="M1253.67,338.65c.238,6.289,3.324,10.432,11.065,11.065h-24.946c6.047,1.478,10.469,3.995,9.779,9.779" fill="none" stroke="#040505" stroke-linecap="round" stroke-linejoin="round" stroke-width="2"/>
        <path id="Path_2070" data-name="Path 2070" d="M1292.389,338.935c-.238,6.289-3.323,10.431-11.065,11.065h24.946c-6.047,1.477-10.468,3.994-9.779,9.779" fill="none" stroke="#040505" stroke-linecap="round" stroke-linejoin="round" stroke-width="2"/>
        <line id="Line_7" data-name="Line 7" y1="33.78" transform="translate(1273.411 326.741)" fill="none" stroke="#040505" stroke-linecap="round" stroke-linejoin="round" stroke-width="2"/>
        <path id="Path_2072" data-name="Path 2072" d="M1262.969,334.661c3.446.358,7.855.75,9.695,5.677" fill="none" stroke="#040505" stroke-linecap="round" stroke-linejoin="round" stroke-width="2"/>
        <path id="Path_2073" data-name="Path 2073" d="M1283.681,334.661c-3.446.358-7.855.75-9.7,5.677" fill="none" stroke="#040505" stroke-linecap="round" stroke-linejoin="round" stroke-width="2"/>
      </g>
      <g id="Ellipse_255" data-name="Ellipse 255" transform="translate(1265 313)" fill="#e77623" stroke="#131212" stroke-linejoin="bevel" stroke-width="2">
        <circle cx="8" cy="8" r="8" stroke="none"/>
        <circle cx="8" cy="8" r="7" fill="none"/>
      </g>
      <g id="Ellipse_256" data-name="Ellipse 256" transform="translate(1249 332)" fill="#e77623" stroke="#131212" stroke-linejoin="bevel" stroke-width="2">
        <circle cx="5" cy="5" r="5" stroke="none"/>
        <circle cx="5" cy="5" r="4" fill="none"/>
      </g>
      <g id="Ellipse_257" data-name="Ellipse 257" transform="translate(1287 332)" fill="#e77623" stroke="#131212" stroke-linejoin="bevel" stroke-width="2">
        <circle cx="5" cy="5" r="5" stroke="none"/>
        <circle cx="5" cy="5" r="4" fill="none"/>
      </g>
      <rect id="Rectangle_1969" data-name="Rectangle 1969" width="30" height="30" rx="11" transform="translate(1260.668 513.653)" stroke-width="2" stroke="#040505" stroke-linecap="round" stroke-linejoin="round" fill="#fff"/>
    </g>
    <g id="Polygon_6" data-name="Polygon 6" transform="matrix(-0.755, -0.656, 0.656, -0.755, 663.875, 155.18)" fill="#fff">
      <path d="M 28.03584861755371 28.99999809265137 L 6.964148044586182 28.99999809265137 C 5.876788139343262 28.99999809265137 4.904288291931152 28.43707656860352 4.362718105316162 27.49417686462402 C 3.821148157119751 26.5512866973877 3.824918031692505 25.42762756347656 4.37280797958374 24.48838806152344 L 14.90866851806641 6.42692756652832 C 15.45231819152832 5.49494743347168 16.42104721069336 4.938547611236572 17.50000762939453 4.938547611236572 C 18.57895851135254 4.938547611236572 19.54768753051758 5.49494743347168 20.09133720397949 6.42692756652832 L 30.62718772888184 24.48838806152344 C 31.17507743835449 25.42762756347656 31.17884826660156 26.5512866973877 30.63727760314941 27.49418830871582 C 30.0957088470459 28.43707656860352 29.12320899963379 28.99999809265137 28.03584861755371 28.99999809265137 Z" stroke="none"/>
      <path d="M 17.49999809265137 5.93853759765625 C 17.15460777282715 5.93853759765625 16.29485893249512 6.035226821899414 15.77244758605957 6.930797576904297 L 5.236587524414063 24.99225616455078 C 4.710107803344727 25.89479827880859 5.056497573852539 26.69427680969238 5.2298583984375 26.99611663818359 C 5.403228759765625 27.29795837402344 5.919267654418945 27.99999809265137 6.964147567749023 27.99999809265137 L 28.03584861755371 27.99999809265137 C 29.08072853088379 27.99999809265137 29.59676742553711 27.29795837402344 29.77013778686523 26.99611663818359 C 29.9434986114502 26.69427680969238 30.28989791870117 25.89479827880859 29.76340866088867 24.99225616455078 L 19.22755813598633 6.930807113647461 C 18.70513725280762 6.035226821899414 17.84538841247559 5.93853759765625 17.49999809265137 5.93853759765625 M 17.50000381469727 3.938543319702148 C 18.84168243408203 3.938543319702148 20.18336296081543 4.600048065185547 20.95511817932129 5.923057556152344 L 31.49096870422363 23.98451614379883 C 33.0464973449707 26.65113830566406 31.12301826477051 29.99999809265137 28.03584861755371 29.99999809265137 L 6.964147567749023 29.99999809265137 C 3.876987457275391 29.99999809265137 1.953498840332031 26.65113830566406 3.509027481079102 23.98451614379883 L 14.04488754272461 5.923057556152344 C 14.81664276123047 4.600048065185547 16.15832328796387 3.938543319702148 17.50000381469727 3.938543319702148 Z" stroke="none"/>
    </g>
    <g id="Group_6805" data-name="Group 6805" transform="translate(-981 6)">
      <g id="Group_6800" data-name="Group 6800" transform="translate(3 -8)">
        <g id="Ellipse_244" data-name="Ellipse 244" transform="translate(1507 304)" fill="none" stroke="#e77623" stroke-width="20">
          <circle cx="31.5" cy="31.5" r="31.5" stroke="none"/>
          <circle cx="31.5" cy="31.5" r="21.5" fill="none"/>
        </g>
        <g id="Group_6737" data-name="Group 6737" transform="translate(1540 131)">
          <g id="Ellipse_258" data-name="Ellipse 258" transform="translate(-37 161)" fill="none" stroke="#000" stroke-width="2">
            <circle cx="33.5" cy="33.5" r="33.5" stroke="none"/>
            <circle cx="33.5" cy="33.5" r="32.5" fill="none"/>
          </g>
          <g id="Ellipse_259" data-name="Ellipse 259" transform="translate(-18 180)" fill="#fff" stroke="#000" stroke-width="2">
            <circle cx="14.5" cy="14.5" r="14.5" stroke="none"/>
            <circle cx="14.5" cy="14.5" r="13.5" fill="none"/>
          </g>
        </g>
      </g>
      <g id="Group_6799" data-name="Group 6799" transform="translate(76.465 -203.539)">
        <g id="Group_6797" data-name="Group 6797">
          <g id="Group_6796" data-name="Group 6796">
            <g id="Rectangle_1979" data-name="Rectangle 1979" transform="translate(1454.535 414.339)" fill="#fff" stroke="#040505" stroke-linecap="round" stroke-linejoin="round" stroke-width="2">
              <rect width="131.418" height="125.942" rx="13.858" stroke="none"/>
              <rect x="-1" y="-1" width="133.418" height="127.942" rx="14.858" fill="none"/>
            </g>
            <path id="Path_2112" data-name="Path 2112" d="M1468.392,414.339h103.7a13.9,13.9,0,0,1,13.857,13.858v8.52H1454.535V428.2A13.9,13.9,0,0,1,1468.392,414.339Z" fill="#e77623" fill-rule="evenodd"/>
            <path id="Path_2113" data-name="Path 2113" d="M1493.153,404.539h0a3.341,3.341,0,0,1,3.332,3.331v16.943a3.341,3.341,0,0,1-3.332,3.331h0a3.341,3.341,0,0,1-3.331-3.331V407.87A3.341,3.341,0,0,1,1493.153,404.539Z" fill="#0b0e18" fill-rule="evenodd"/>
            <path id="Path_2114" data-name="Path 2114" d="M1547.334,404.539h0a3.341,3.341,0,0,1,3.331,3.331v16.943a3.341,3.341,0,0,1-3.331,3.331h0a3.341,3.341,0,0,1-3.332-3.331V407.87A3.341,3.341,0,0,1,1547.334,404.539Z" fill="#0b0e18" fill-rule="evenodd"/>
          </g>
        </g>
        <g id="Group_6798" data-name="Group 6798">
          <rect id="Rectangle_1980" data-name="Rectangle 1980" width="29.455" height="23.31" rx="5.399" transform="translate(1468.885 447.03)" fill="#b1d9df"/>
          <rect id="Rectangle_1981" data-name="Rectangle 1981" width="29.455" height="23.31" rx="5.399" transform="translate(1542.146 447.03)" fill="#fff" stroke="#040505" stroke-miterlimit="10" stroke-width="1" stroke-dasharray="2 2"/>
          <rect id="Rectangle_1982" data-name="Rectangle 1982" width="29.455" height="23.31" rx="5.399" transform="translate(1505.511 447.03)" fill="#b1d9df"/>
          <rect id="Rectangle_1983" data-name="Rectangle 1983" width="29.455" height="23.31" rx="5.399" transform="translate(1468.885 476.434)" fill="#b1d9df"/>
          <rect id="Rectangle_1984" data-name="Rectangle 1984" width="29.455" height="23.31" rx="5.399" transform="translate(1542.146 476.434)" fill="#b1d9df"/>
          <rect id="Rectangle_1985" data-name="Rectangle 1985" width="29.455" height="23.31" rx="5.399" transform="translate(1505.511 476.434)" fill="#b1d9df"/>
          <rect id="Rectangle_1986" data-name="Rectangle 1986" width="29.455" height="23.31" rx="5.399" transform="translate(1468.885 505.935)" fill="#fff" stroke="#040505" stroke-miterlimit="10" stroke-width="1" stroke-dasharray="2 2"/>
          <rect id="Rectangle_1987" data-name="Rectangle 1987" width="29.455" height="23.31" rx="5.399" transform="translate(1542.146 505.935)" fill="#b1d9df"/>
          <rect id="Rectangle_1988" data-name="Rectangle 1988" width="29.455" height="23.31" rx="5.399" transform="translate(1505.511 505.935)" fill="#fff" stroke="#040505" stroke-miterlimit="10" stroke-width="1" stroke-dasharray="2 2"/>
        </g>
      </g>
      <g id="Group_6735" data-name="Group 6735" transform="translate(1678 8)">
        <g id="Ellipse_258-2" data-name="Ellipse 258" transform="translate(-37 161)" fill="#4483ef" stroke="#000" stroke-width="2">
          <circle cx="33.5" cy="33.5" r="33.5" stroke="none"/>
          <circle cx="33.5" cy="33.5" r="32.5" fill="none"/>
        </g>
        <g id="Ellipse_259-2" data-name="Ellipse 259" transform="translate(-18 180)" fill="#fff" stroke="#000" stroke-width="2">
          <circle cx="14.5" cy="14.5" r="14.5" stroke="none"/>
          <circle cx="14.5" cy="14.5" r="13.5" fill="none"/>
        </g>
      </g>
    </g>
    <g id="Group_6809" data-name="Group 6809" transform="translate(528.287 14.287)">
      <g id="Ellipse_258-3" data-name="Ellipse 258" transform="translate(-37.287 160.713)" fill="#d14124" stroke="#000" stroke-width="2">
        <circle cx="21" cy="21" r="21" stroke="none"/>
        <circle cx="21" cy="21" r="20" fill="none"/>
      </g>
      <g id="Ellipse_259-3" data-name="Ellipse 259" transform="translate(-25.287 172.713)" fill="#fff" stroke="#000" stroke-width="2">
        <circle cx="9" cy="9" r="9" stroke="none"/>
        <circle cx="9" cy="9" r="8" fill="none"/>
      </g>
    </g>
    <g id="Group_6810" data-name="Group 6810" transform="translate(524.525 436.744)">
      <g id="Group_6796-2" data-name="Group 6796" transform="translate(0)">
        <g id="Rectangle_1979-2" data-name="Rectangle 1979" fill="#fff" stroke="#040505" stroke-linecap="round" stroke-linejoin="round" stroke-width="2" stroke-dasharray="2 6">
          <rect width="150.281" height="143.32" rx="13.858" stroke="none"/>
          <rect x="-1" y="-1" width="152.281" height="145.32" rx="14.858" fill="none"/>
        </g>
      </g>
    </g>
    <g id="diagram" transform="translate(542.478 450.556)">
      <g id="Group_6788" data-name="Group 6788" transform="translate(0 12.085)">
        <path id="Path_2089" data-name="Path 2089" d="M350.627,222.289l-78.519.192V202.227l29.46-19.66,15.183-17.2,8.907,3.718,24.969,35.236Z" transform="translate(-244.454 -124.049)" fill="#b1d9df" stroke="rgba(0,0,0,0)" stroke-width="1" stroke-dasharray="6 8"/>
        <g id="Group_6767" data-name="Group 6767" transform="translate(64.636 20.695)">
          <path id="Path_2090" data-name="Path 2090" d="M317.54,154.452,291.68,183.77H301.86v43.492h31.357V183.77h5.944v-4.8Z" transform="translate(-291.68 -154.452)" fill="#b1d9df" stroke="rgba(0,0,0,0)" stroke-width="1" stroke-dasharray="6 8"/>
          <path id="Path_2091" data-name="Path 2091" d="M323.472,172.987l-13.68-15.512L296.11,172.987h4.372V215.28H319.1V172.987Z" transform="translate(-283.933 -144.874)" fill="#e77623"/>
        </g>
        <path id="Path_2092" data-name="Path 2092" d="M265.857,143.5l4.372,8.933-8.9-.076Z" transform="translate(-254.04 -143.5)" fill="#0b0e18" stroke="rgba(0,0,0,0)" stroke-width="1" stroke-dasharray="6 8"/>
        <path id="Path_2093" data-name="Path 2093" d="M324.447,194.585l-8.848,4.547-.094-8.9Z" transform="translate(-205.849 -101.93)" fill="#0b0e18" stroke="rgba(0,0,0,0)" stroke-width="1" stroke-dasharray="6 8"/>
        <path id="Path_2094" data-name="Path 2094" d="M262.083,186.268a3.028,3.028,0,1,1,3,3.057A3.021,3.021,0,0,1,262.083,186.268Z" transform="translate(-253.372 -108.121)" fill="#0b0e18" stroke="rgba(0,0,0,0)" stroke-width="1" stroke-dasharray="6 8"/>
        <path id="Path_2095" data-name="Path 2095" d="M262.083,175.866a3.028,3.028,0,1,1,3,3.054A3.021,3.021,0,0,1,262.083,175.866Z" transform="translate(-253.372 -117.376)" fill="#0b0e18" stroke="rgba(0,0,0,0)" stroke-width="1" stroke-dasharray="6 8"/>
        <g id="Group_6771" data-name="Group 6771" transform="translate(11.74 75.148)">
          <g id="Group_6768" data-name="Group 6768" transform="translate(12.887)">
            <path id="Path_2096" data-name="Path 2096" d="M270.506,186.3a3.029,3.029,0,1,1,3.027,3.029A3.028,3.028,0,0,1,270.506,186.3Z" transform="translate(-270.506 -183.27)" fill="#0b0e18" stroke="rgba(0,0,0,0)" stroke-width="1" stroke-dasharray="6 8"/>
          </g>
          <g id="Group_6769" data-name="Group 6769" transform="translate(12.887 14.278)">
            <path id="Path_2097" data-name="Path 2097" d="M270.506,193.853a3.029,3.029,0,1,1,3.027,3.027A3.028,3.028,0,0,1,270.506,193.853Z" transform="translate(-270.506 -190.826)" fill="#0b0e18" stroke="rgba(0,0,0,0)" stroke-width="1" stroke-dasharray="6 8"/>
          </g>
          <g id="Group_6770" data-name="Group 6770" transform="translate(0 2.557)">
            <path id="Path_2098" data-name="Path 2098" d="M280.072,200.41h-.945v-2.455h.945Zm0-4.911h-.945v-2.458h.945Zm0-4.915h-.945v-2.456h.945Zm0-4.911h-.945v-.106H277.72v-.945h2.353Zm-4.807-.106h-2.456v-.945h2.456Zm-4.913,0H267.9v-.945h2.456Zm-4.915,0h-1.752v-.945h1.752Z" transform="translate(-263.686 -184.623)" fill="#0b0e18" stroke="rgba(0,0,0,0)" stroke-width="1" stroke-dasharray="6 8"/>
          </g>
        </g>
        <g id="Group_6775" data-name="Group 6775" transform="translate(11.74 55.489)">
          <g id="Group_6772" data-name="Group 6772" transform="translate(42.347)">
            <path id="Path_2099" data-name="Path 2099" d="M286.1,175.9a3.029,3.029,0,1,1,3.027,3.023A3.029,3.029,0,0,1,286.1,175.9Z" transform="translate(-286.097 -172.866)" fill="#0b0e18" stroke="rgba(0,0,0,0)" stroke-width="1" stroke-dasharray="6 8"/>
          </g>
          <g id="Group_6773" data-name="Group 6773" transform="translate(42.347 34.235)">
            <path id="Path_2100" data-name="Path 2100" d="M286.1,194.015a3.029,3.029,0,1,1,3.027,3.025A3.027,3.027,0,0,1,286.1,194.015Z" transform="translate(-286.097 -190.984)" fill="#0b0e18" stroke="rgba(0,0,0,0)" stroke-width="1" stroke-dasharray="6 8"/>
          </g>
          <g id="Group_6774" data-name="Group 6774" transform="translate(0 2.557)">
            <path id="Path_2101" data-name="Path 2101" d="M309.533,209.666h-.945v-2.455h.945Zm0-4.911h-.945V202.3h.945Zm0-4.915h-.945v-2.456h.945Zm0-4.911h-.945v-2.456h.945Zm0-4.915h-.945v-2.456h.945Zm0-4.913h-.945v-2.455h.945Zm0-4.911h-.945v-2.458h.945Zm0-4.915h-.945v-.112h-1.4v-.945h2.343Zm-4.8-.112h-2.456v-.945h2.456Zm-4.913,0h-2.456v-.945h2.456Zm-4.913,0h-2.456v-.945h2.456Zm-4.913,0h-2.456v-.945h2.456Zm-4.913,0h-2.456v-.945h2.456Zm-4.913,0h-2.456v-.945h2.456Zm-4.913,0H272.8v-.945h2.456Zm-4.913,0h-2.456v-.945h2.456Zm-4.913,0h-1.744v-.945h1.744Z" transform="translate(-263.686 -174.219)" fill="#0b0e18" stroke="rgba(0,0,0,0)" stroke-width="1" stroke-dasharray="6 8"/>
          </g>
        </g>
        <g id="Group_6784" data-name="Group 6784" transform="translate(8.711 17.668)">
          <g id="Group_6776" data-name="Group 6776" transform="translate(0 0.002)">
            <path id="Path_2102" data-name="Path 2102" d="M262.083,155.848a3.028,3.028,0,1,1,3,3.055A3.021,3.021,0,0,1,262.083,155.848Z" transform="translate(-262.083 -152.851)" fill="#0b0e18" stroke="rgba(0,0,0,0)" stroke-width="1" stroke-dasharray="6 8"/>
          </g>
          <g id="Group_6783" data-name="Group 6783" transform="translate(3.028)">
            <g id="Group_6778" data-name="Group 6778" transform="translate(75.727)">
              <g id="Group_6777" data-name="Group 6777">
                <path id="Path_2103" data-name="Path 2103" d="M303.762,155.877a3.029,3.029,0,1,1,3.027,3.029A3.027,3.027,0,0,1,303.762,155.877Z" transform="translate(-303.762 -152.85)" fill="#0b0e18" stroke="rgba(0,0,0,0)" stroke-width="1" stroke-dasharray="6 8"/>
              </g>
            </g>
            <g id="Group_6782" data-name="Group 6782" transform="translate(0 2.555)">
              <g id="Group_6779" data-name="Group 6779" transform="translate(77.528 0)">
                <rect id="Rectangle_1977" data-name="Rectangle 1977" width="1.229" height="0.945" fill="#0b0e18" stroke="rgba(0,0,0,0)" stroke-width="1" stroke-dasharray="6 8"/>
              </g>
              <g id="Group_6780" data-name="Group 6780" transform="translate(3.691)">
                <path id="Path_2104" data-name="Path 2104" d="M337.014,155.147h-2.462V154.2h2.462Zm-4.92,0h-2.462V154.2h2.462Zm-4.924,0h-2.462V154.2h2.462Zm-4.921,0h-2.462V154.2h2.462Zm-4.924,0h-2.462V154.2h2.462Zm-4.922,0H309.94V154.2H312.4Zm-4.924,0h-2.462V154.2h2.462Zm-4.92,0H300.1V154.2h2.462Zm-4.924,0h-2.458V154.2h2.458Zm-4.922,0h-2.46V154.2h2.46Zm-4.922,0h-2.46V154.2h2.46Zm-4.922,0H280.4V154.2h2.462Zm-4.924,0h-2.46V154.2h2.46Zm-4.92,0h-2.462V154.2h2.462Zm-4.924,0h-2.458V154.2H268.1Z" transform="translate(-265.639 -154.202)" fill="#0b0e18" stroke="rgba(0,0,0,0)" stroke-width="1" stroke-dasharray="6 8"/>
              </g>
              <g id="Group_6781" data-name="Group 6781" transform="translate(0 0)">
                <rect id="Rectangle_1978" data-name="Rectangle 1978" width="1.229" height="0.945" fill="#0b0e18" stroke="rgba(0,0,0,0)" stroke-width="1" stroke-dasharray="6 8"/>
              </g>
            </g>
          </g>
        </g>
        <g id="Group_6785" data-name="Group 6785" transform="translate(10.761 6.576)">
          <path id="Path_2105" data-name="Path 2105" d="M264.113,244.862a.944.944,0,0,1-.945-.945V147.925a.945.945,0,1,1,1.89,0v95.992A.944.944,0,0,1,264.113,244.862Z" transform="translate(-263.168 -146.98)" fill="#0b0e18" stroke="rgba(0,0,0,0)" stroke-width="1" stroke-dasharray="6 8"/>
        </g>
        <g id="Group_6786" data-name="Group 6786" transform="translate(0 91.807)">
          <path id="Path_2106" data-name="Path 2106" d="M367.138,193.976H258.418a.945.945,0,1,1,0-1.89h108.72a.945.945,0,0,1,0,1.89Z" transform="translate(-257.473 -192.086)" fill="#0b0e18" stroke="rgba(0,0,0,0)" stroke-width="1" stroke-dasharray="6 8"/>
        </g>
      </g>
      <g id="Group_6794" data-name="Group 6794" transform="translate(21.276 -1)">
        <g id="Group_6793" data-name="Group 6793" transform="translate(12.273)">
          <g id="Group_6790" data-name="Group 6790">
            <path id="Path_2109" data-name="Path 2109" d="M323.608,150.187a6.568,6.568,0,0,1-4.643-11.218,6.722,6.722,0,0,1,9.293,0,6.572,6.572,0,0,1-4.65,11.218Zm0-9.365a2.794,2.794,0,0,0-1.977,4.769,2.863,2.863,0,0,0,3.951,0,2.793,2.793,0,0,0-1.975-4.769Z" transform="translate(-317.036 -137.104)" fill="#0b0e18" stroke="rgba(0,0,0,0)" stroke-width="1" stroke-dasharray="6 8"/>
          </g>
          <g id="Group_6791" data-name="Group 6791" transform="translate(4.63 4.567)">
            <path id="Path_2110" data-name="Path 2110" d="M321.375,156.495a1.89,1.89,0,0,1-1.336-3.225l13.195-13.195a1.889,1.889,0,0,1,2.672,2.672l-13.195,13.195A1.884,1.884,0,0,1,321.375,156.495Z" transform="translate(-319.487 -139.521)" fill="#0b0e18" stroke="rgba(0,0,0,0)" stroke-width="1" stroke-dasharray="6 8"/>
          </g>
          <g id="Group_6792" data-name="Group 6792" transform="translate(13.089 13.088)">
            <path id="Path_2111" data-name="Path 2111" d="M330.531,157.111a6.57,6.57,0,0,1-4.646-11.217,6.726,6.726,0,0,1,9.293,0,6.57,6.57,0,0,1-4.647,11.218Zm0-9.363a2.791,2.791,0,0,0-1.975,4.766,2.859,2.859,0,0,0,3.951,0,2.8,2.8,0,0,0,0-3.949A2.759,2.759,0,0,0,330.533,147.748Z" transform="translate(-323.963 -144.031)" fill="#0b0e18" stroke="rgba(0,0,0,0)" stroke-width="1" stroke-dasharray="6 8"/>
          </g>
        </g>
      </g>
    </g>
    <g id="Group_6817" data-name="Group 6817" transform="translate(-1030.023 -182.402)">
      <path id="Path_2133" data-name="Path 2133" d="M1476.066,273.06a33.657,33.657,0,0,1-27.115,33l-6.525,19.845-6.53-19.845a33.645,33.645,0,1,1,40.17-33Z" fill="none" stroke="#040505" stroke-linecap="round" stroke-linejoin="round" stroke-width="2" stroke-dasharray="2 6"/>
      <path id="Path_2134" data-name="Path 2134" d="M1486.326,257.8l-38.76,38.79-.25-.24-8.87-8.87-17-16.98,8.62-8.62,17.01,17,30.17-30.16,9.08,9.08Z" fill="#eb5f59" stroke="#040505" stroke-miterlimit="10" stroke-width="2"/>
      <g id="Group_6816" data-name="Group 6816">
        <path id="Path_2135" data-name="Path 2135" d="M1438.489,338.8l-5.223-5.3a7.818,7.818,0,0,0-11.055-.086l-4.411,4.38-15.214-15.451,4.367-4.336a7.878,7.878,0,0,0,.086-11.142L1400,299.716a11.016,11.016,0,0,0-15.579-.12l-3.778,3.72a11.016,11.016,0,0,0-.121,15.579l1.7,1.729h0l10.161,10.319.7.715h0l15.214,15.451h0l10.707,10.874h0l.472.479.024-.024a13.659,13.659,0,0,0,18.982-19.634Z" fill="#fff" stroke="#040505" stroke-linecap="round" stroke-linejoin="round" stroke-width="2"/>
        <line id="Line_10" data-name="Line 10" x2="8.052" y2="8.178" transform="translate(1391.157 306.064)" fill="#fff" stroke="#040505" stroke-linecap="round" stroke-linejoin="round" stroke-width="2"/>
        <line id="Line_11" data-name="Line 11" x2="8.052" y2="8.178" transform="translate(1425.131 340.567)" fill="#fff" stroke="#040505" stroke-linecap="round" stroke-linejoin="round" stroke-width="2"/>
        <path id="Path_2136" data-name="Path 2136" d="M1437.064,359.241l7.224,7.621a4.039,4.039,0,0,1-2.931,6.818h0a4.039,4.039,0,0,1-2.856-1.183l-2.368-2.368a2.69,2.69,0,0,0-3.8,0l-2.238,2.655a2.69,2.69,0,0,1-3.8,0l-4.192-4.733" fill="none" stroke="#040505" stroke-linecap="round" stroke-linejoin="round" stroke-width="2"/>
        <line id="Line_12" data-name="Line 12" x2="4.631" y2="4.631" transform="translate(1416.021 369.049)" fill="#fff" stroke="#040505" stroke-linecap="round" stroke-linejoin="round" stroke-width="2"/>
        <line id="Line_13" data-name="Line 13" x2="4.631" y2="4.631" transform="translate(1409.187 369.049)" fill="#fff" stroke="#040505" stroke-linecap="round" stroke-linejoin="round" stroke-width="2"/>
        <line id="Line_14" data-name="Line 14" x2="4.631" y2="4.631" transform="translate(1401.97 369.049)" fill="#fff" stroke="#040505" stroke-linecap="round" stroke-linejoin="round" stroke-width="2"/>
        <line id="Line_15" data-name="Line 15" x2="4.631" y2="4.631" transform="translate(1395.183 369.049)" fill="#fff" stroke="#040505" stroke-linecap="round" stroke-linejoin="round" stroke-width="2"/>
        <line id="Line_16" data-name="Line 16" x2="4.631" y2="4.631" transform="translate(1388.05 369.049)" fill="#fff" stroke="#040505" stroke-linecap="round" stroke-linejoin="round" stroke-width="2"/>
        <circle id="Ellipse_266" data-name="Ellipse 266" cx="3.734" cy="3.734" r="3.734" transform="translate(1362.023 319.01)" stroke-width="2" stroke="#040505" stroke-linecap="round" stroke-linejoin="round" fill="#fff"/>
        <g id="Ellipse_267" data-name="Ellipse 267" transform="translate(1379.947 344.655)" fill="#e77623" stroke="#131212" stroke-linejoin="bevel" stroke-width="2">
          <circle cx="7.293" cy="7.293" r="7.293" stroke="none"/>
          <circle cx="7.293" cy="7.293" r="6.293" fill="none"/>
        </g>
        <circle id="Ellipse_268" data-name="Ellipse 268" cx="5.676" cy="5.676" r="5.676" transform="translate(1448.21 338.979)" fill="#eb5f59" stroke="#040505" stroke-miterlimit="10" stroke-width="1"/>
        <circle id="Ellipse_269" data-name="Ellipse 269" cx="1.881" cy="1.881" r="1.881" transform="translate(1420.216 315.785)" stroke-width="2" stroke="#040505" stroke-linecap="round" stroke-linejoin="round" fill="#fff"/>
        <circle id="Ellipse_270" data-name="Ellipse 270" cx="2.838" cy="2.838" r="2.838" transform="translate(1462.862 321.162)" stroke-width="2" stroke="#040505" stroke-linecap="round" stroke-linejoin="round" fill="#fff"/>
      </g>
    </g>
    <g id="Group_7590" data-name="Group 7590" transform="translate(-935 -481.501)">
      <g id="Group_6814" data-name="Group 6814" transform="translate(-196 29.501)">
        <g id="Group_6808" data-name="Group 6808" transform="translate(219 105)">
          <g id="Ellipse_263" data-name="Ellipse 263" transform="translate(1046 347)" fill="#fff" stroke="#000" stroke-width="2" stroke-dasharray="2 6">
            <circle cx="72.5" cy="72.5" r="72.5" stroke="none"/>
            <circle cx="72.5" cy="72.5" r="71.5" fill="none"/>
          </g>
        </g>
      </g>
      <g id="Group_6841" data-name="Group 6841" transform="translate(1096.731 506.805)">
        <path id="Path_2137" data-name="Path 2137" d="M205.27,129.708a3.513,3.513,0,0,1,2.06.18,3.225,3.225,0,0,1,1.845,2.264,3.6,3.6,0,0,1-.273,2.065,3.169,3.169,0,0,1-3.577,1.7,3.264,3.264,0,0,1-2.48-3.157A3.206,3.206,0,0,1,205.27,129.708Z" transform="translate(-181.344 -126.405)" fill="#fff"/>
        <path id="Path_2138" data-name="Path 2138" d="M328.593,129.7a3.475,3.475,0,0,1,2.078.208,3.255,3.255,0,0,1,1.859,2.726,3.343,3.343,0,0,1-.953,2.428,3.151,3.151,0,0,1-5.14-.933,3.835,3.835,0,0,1-.235-2A3.223,3.223,0,0,1,328.593,129.7Z" transform="translate(-263.78 -126.406)" fill="#fff"/>
        <path id="Path_2139" data-name="Path 2139" d="M321.094,275.6q2.426-.011,4.85,0c-.02,6.427,0,12.857-.007,19.284q-2.417,0-4.835,0C321.1,288.452,321.116,282.024,321.094,275.6Z" transform="translate(-260.383 -223.962)" fill="#fff"/>
        <g id="Group_6821" data-name="Group 6821" transform="translate(4.312 0)">
          <g id="Group_6820" data-name="Group 6820">
            <path id="Path_2140" data-name="Path 2140" d="M154.976,120.383a7.55,7.55,0,0,1,3.246-.487q33.984,0,67.968,0a6.431,6.431,0,0,1,6.462,6.618c-.01,2.2.023,4.405-.013,6.606a6.548,6.548,0,0,0-2.3-.357q-38.453.007-76.905,0a7.088,7.088,0,0,0-2.409.355c-.033-2.288-.015-4.576-.023-6.863A6.423,6.423,0,0,1,154.976,120.383Zm15.644,2.811a3.206,3.206,0,0,0-2.424,3.057,3.264,3.264,0,0,0,2.48,3.157,3.169,3.169,0,0,0,3.577-1.7,3.6,3.6,0,0,0,.273-2.065,3.225,3.225,0,0,0-1.845-2.264A3.513,3.513,0,0,0,170.62,123.194Zm40.888-.005a3.223,3.223,0,0,0-2.391,2.429,3.835,3.835,0,0,0,.235,2,3.151,3.151,0,0,0,5.14.933,3.343,3.343,0,0,0,.953-2.428,3.255,3.255,0,0,0-1.859-2.726A3.474,3.474,0,0,0,211.508,123.188Z" transform="translate(-151.006 -119.891)" fill="#c7c7c7"/>
          </g>
          <path id="Path_2141" data-name="Path 2141" d="M305.312,217.16a2.458,2.458,0,0,1,1.142-.112c-.023,6.449,0,12.9-.013,19.348v.058q-2.424-.013-4.85,0V236.4q0-6.689,0-13.376c-3.225,1.072-6.443,2.162-9.669,3.228-.01-1.456.008-2.913-.009-4.369C296.374,220.291,300.849,218.741,305.312,217.16Z" transform="translate(-245.19 -184.82)" fill="#c7c7c7"/>
          <path id="Path_2142" data-name="Path 2142" d="M205.358,219.489a12.471,12.471,0,0,1,7.073-2.429,13.553,13.553,0,0,1,7.289,1.59,9.048,9.048,0,0,1,3.852,4.433,12.08,12.08,0,0,1,.755,5.865,9.59,9.59,0,0,1-5.782,6.981,7.292,7.292,0,0,1,1.186.471,3.508,3.508,0,0,1-.758.068c-3.368-.024-6.736.023-10.1-.023-.013-.731-.03-1.464.016-2.194,2.428-.058,4.989.239,7.261-.825a5.9,5.9,0,0,0,3.518-4.588,8.161,8.161,0,0,0-1.1-5.643,5.753,5.753,0,0,0-3.928-2.224,8.282,8.282,0,0,0-6.008,1.16,6.377,6.377,0,0,0-2.544,5.326c-1.558.042-3.118.01-4.677.015a11.346,11.346,0,0,1,.318-2.546A9.849,9.849,0,0,1,205.358,219.489Z" transform="translate(-184.693 -184.832)" fill="#c7c7c7"/>
        </g>
        <g id="Group_6822" data-name="Group 6822" transform="translate(0.165 12.871)">
          <path id="Path_2143" data-name="Path 2143" d="M142.67,159.065a7.087,7.087,0,0,1,2.409-.355q38.453,0,76.905,0a6.548,6.548,0,0,1,2.3.357,6.435,6.435,0,0,1,4.241,5.227,6.834,6.834,0,0,0-2.881-4.041,6.607,6.607,0,0,0-3.531-1.027q-38.575.027-77.153.018a6.527,6.527,0,0,0-5.124,2.308,10.558,10.558,0,0,0-1.331,2.221A6.444,6.444,0,0,1,142.67,159.065Z" transform="translate(-138.5 -158.706)" fill="#4483ef"/>
          <path id="Path_2144" data-name="Path 2144" d="M202.976,275.443l.091-.008v.057c.023,6.428,0,12.855.009,19.283q2.419,0,4.835,0c0-6.427-.013-12.857.007-19.284v-.058l.078.006a19.587,19.587,0,0,0,2.143.041q9.087-.005,18.174,0c.7,10.131,1.358,20.264,2.05,30.394a10.463,10.463,0,0,1-.106,3.483l-.029.036a5.867,5.867,0,0,0-.681,1.136,6.456,6.456,0,0,1-5.438,3.082q-36.249-.021-72.5,0a8.67,8.67,0,0,1-2.269-.16,6.564,6.564,0,0,1-4.025-3.078,6.094,6.094,0,0,0-.575-.976l-.03-.041a15.816,15.816,0,0,1-.025-4.629c.665-9.744,1.3-19.492,1.971-29.236q12.081-.03,24.163,0c.007.463.011.926,0,1.389,2.552.049,5.223-.257,7.641.754a5.894,5.894,0,0,1,3.489,3.687,9.176,9.176,0,0,1-.165,5.76,5.888,5.888,0,0,1-3.859,3.556,9.708,9.708,0,0,1-6.513-.3,5.953,5.953,0,0,1-3.372-3.711,7.987,7.987,0,0,1-.337-2.272c-1.543.01-3.086.006-4.629,0a9.77,9.77,0,0,0,6.531,9.442,15.445,15.445,0,0,0,7.917.789,11.507,11.507,0,0,0,6.843-3.533,10.506,10.506,0,0,0,2.546-6.544,9.364,9.364,0,0,0-1.816-6.455,10.376,10.376,0,0,0-3.062-2.515,13,13,0,0,1,1.67-.051q8.56-.007,17.119,0C201.545,275.468,202.264,275.527,202.976,275.443Z" transform="translate(-142.521 -236.728)" fill="#4483ef"/>
        </g>
        <g id="Group_6823" data-name="Group 6823" transform="translate(0 13.386)">
          <path id="Path_2145" data-name="Path 2145" d="M139.5,162.588a6.527,6.527,0,0,1,5.124-2.308q38.577,0,77.153-.018a6.607,6.607,0,0,1,3.531,1.027,6.835,6.835,0,0,1,2.881,4.041,5.418,5.418,0,0,1,.025,1.753c-1.4,10.465-2.846,20.924-4.224,31.392-5.813-.01-11.627.005-17.439,0-.969-.008-1.939.036-2.907-.017l-.078-.006c.015-6.449-.01-12.9.013-19.348a2.459,2.459,0,0,0-1.142.112c-4.463,1.581-8.938,3.132-13.4,4.721.016,1.456,0,2.912.009,4.369,3.226-1.066,6.444-2.156,9.669-3.228q-.008,6.689,0,13.376l-.091.008c-6.755.05-13.512,0-20.267.027a2.559,2.559,0,0,1-1-.044,7.291,7.291,0,0,0-1.186-.471,9.59,9.59,0,0,0,5.782-6.981,12.08,12.08,0,0,0-.755-5.865,9.048,9.048,0,0,0-3.852-4.433,13.553,13.553,0,0,0-7.289-1.59,12.471,12.471,0,0,0-7.073,2.429,9.85,9.85,0,0,0-3.635,5.437,11.346,11.346,0,0,0-.318,2.546c1.559,0,3.119.027,4.677-.015a6.377,6.377,0,0,1,2.544-5.326,8.281,8.281,0,0,1,6.008-1.16,5.753,5.753,0,0,1,3.928,2.224,8.161,8.161,0,0,1,1.1,5.643,5.9,5.9,0,0,1-3.518,4.588c-2.272,1.065-4.833.768-7.261.825h-.06c.025.732,0,1.464.016,2.2q-12.086-.019-24.175,0-2.062-15.381-4.152-30.758a7.206,7.206,0,0,1,.029-2.926A10.555,10.555,0,0,1,139.5,162.588Z" transform="translate(-138.003 -160.261)" fill="#3664d0"/>
          <path id="Path_2146" data-name="Path 2146" d="M145.206,377.86a6.094,6.094,0,0,1,.575.976,6.564,6.564,0,0,0,4.025,3.078,8.672,8.672,0,0,0,2.269.16q36.248.013,72.5,0a6.456,6.456,0,0,0,5.438-3.082,5.868,5.868,0,0,1,.681-1.136,6.407,6.407,0,0,1-4.226,4.416,10.9,10.9,0,0,1-3.524.308H152.33a8.791,8.791,0,0,1-2.8-.277A6.418,6.418,0,0,1,145.206,377.86Z" transform="translate(-142.818 -305.702)" fill="#3664d0"/>
        </g>
      </g>
    </g>
    <g id="Group_7591" data-name="Group 7591" transform="translate(-981 -82.501)">
      <g id="Group_6815" data-name="Group 6815" transform="translate(56 101.501)">
        <g id="Group_6804" data-name="Group 6804" transform="translate(-3.451 -7.722)">
          <path id="Path_2115" data-name="Path 2115" d="M936.788,214.722h75.943a8.337,8.337,0,0,1,8.337,8.337v53.293a8.337,8.337,0,0,1-8.337,8.337h-6.988v20.088l-18.654-20.088h-50.3a8.338,8.338,0,0,1-8.337-8.337V223.059A8.338,8.338,0,0,1,936.788,214.722Z" transform="translate(0 -19)" fill="#fff" stroke="#040505" stroke-linecap="round" stroke-linejoin="round" stroke-width="2"/>
          <g id="Group_6819" data-name="Group 6819" transform="translate(12 3)">
            <path id="Path_2116" data-name="Path 2116" stroke="#040505" d="M1191.017,272h-98.141A10.774,10.774,0,0,0,1082.1,282.77v68.87a10.774,10.774,0,0,0,10.774,10.774h9.031v25.961l24.106-25.961h65a10.774,10.774,0,0,0,10.774-10.774V282.77A10.774,10.774,0,0,0,1191.017,272Z" fill="#fff" transform="translate(0 -2)" stroke-linecap="round" stroke-linejoin="round" stroke-width="2" stroke-dasharray="2 6"/>
            <g id="Rectangle_1989" data-name="Rectangle 1989" transform="translate(1108.596 286.907)" fill="#e77623" stroke="#131212" stroke-linejoin="bevel" stroke-width="2">
              <rect width="58.898" height="6.787" rx="3.394" stroke="none"/>
              <rect x="1" y="1" width="56.898" height="4.787" rx="2.394" fill="none"/>
            </g>
            <g id="Rectangle_1990" data-name="Rectangle 1990" transform="translate(1108.596 300.992)" fill="#e77623" stroke="#131212" stroke-linejoin="bevel" stroke-width="2">
              <rect width="58.898" height="6.787" rx="3.394" stroke="none"/>
              <rect x="1" y="1" width="56.898" height="4.787" rx="2.394" fill="none"/>
            </g>
            <g id="Rectangle_1991" data-name="Rectangle 1991" transform="translate(1120.785 317.078)" fill="#e77623" stroke="#131212" stroke-linejoin="bevel" stroke-width="2">
              <rect width="58.898" height="6.787" rx="3.394" stroke="none"/>
              <rect x="1" y="1" width="56.898" height="4.787" rx="2.394" fill="none"/>
            </g>
            <g id="Rectangle_1992" data-name="Rectangle 1992" transform="translate(1116.279 334.106)" fill="#e77623" stroke="#131212" stroke-linejoin="bevel" stroke-width="2">
              <rect width="58.898" height="6.787" rx="3.394" stroke="none"/>
              <rect x="1" y="1" width="56.898" height="4.787" rx="2.394" fill="none"/>
            </g>
          </g>
          <g id="Group_6801" data-name="Group 6801" transform="translate(0 -19)">
            <path id="Path_2117" data-name="Path 2117" d="M990.04,274.794H974.529a1.361,1.361,0,0,1-1.361-1.348V257.869a1.315,1.315,0,0,1,2.255-.933l15.57,15.57a1.315,1.315,0,0,1-.953,2.288Z" fill="#e77623" stroke="#040505" stroke-linecap="round" stroke-linejoin="round" stroke-width="2"/>
            <circle id="Ellipse_262" data-name="Ellipse 262" cx="9.718" cy="9.718" r="9.718" transform="translate(980.269 224.343)" stroke-width="2" stroke="#040505" stroke-linecap="round" stroke-linejoin="round" fill="none"/>
            <rect id="Rectangle_1993" data-name="Rectangle 1993" width="19.725" height="19.725" rx="3.945" transform="translate(942.955 235.389)" stroke-width="2" stroke="#040505" stroke-linecap="round" stroke-linejoin="round" fill="none"/>
          </g>
          <g id="Group_6803" data-name="Group 6803">
            <path id="Path_2118" data-name="Path 2118" d="M1089.729,275.058a80.8,80.8,0,0,1,55.512,57.695,15.833,15.833,0,0,1-15.337,19.715h-125.8a15.834,15.834,0,0,1-15.337-19.715,80.8,80.8,0,0,1,55.513-57.695" fill="#fff" stroke="#040505" stroke-linecap="round" stroke-linejoin="round" stroke-width="2"/>
            <path id="Path_2119" data-name="Path 2119" d="M1027.426,331.452" fill="none" stroke="#040505" stroke-linecap="round" stroke-linejoin="round" stroke-width="2"/>
            <path id="Path_2120" data-name="Path 2120" d="M1048.56,352.586" fill="none" stroke="#040505" stroke-linecap="round" stroke-linejoin="round" stroke-width="2"/>
            <path id="Path_2121" data-name="Path 2121" d="M1106.082,331.452" fill="none" stroke="#040505" stroke-linecap="round" stroke-linejoin="round" stroke-width="2"/>
            <path id="Path_2122" data-name="Path 2122" d="M1084.949,352.586" fill="none" stroke="#040505" stroke-linecap="round" stroke-linejoin="round" stroke-width="2"/>
            <path id="Path_2123" data-name="Path 2123" d="M1044.285,275.058l22.722,22.8s-27.544-10.95-27.544-12.567S1044.285,275.058,1044.285,275.058Z" fill="none" stroke="#040505" stroke-linecap="round" stroke-linejoin="round" stroke-width="2"/>
            <path id="Path_2124" data-name="Path 2124" d="M1089.73,275.058l-22.723,22.8s27.545-10.95,27.545-12.567S1089.73,275.058,1089.73,275.058Z" fill="none" stroke="#040505" stroke-linecap="round" stroke-linejoin="round" stroke-width="2"/>
            <path id="Path_2125" data-name="Path 2125" d="M1006.712,327.2h40.847a5.716,5.716,0,0,1,5.716,5.676l.137,19.593" fill="none" stroke="#040505" stroke-linecap="round" stroke-linejoin="round" stroke-width="2"/>
            <path id="Path_2126" data-name="Path 2126" d="M1123.381,327.2h-40.846a5.716,5.716,0,0,0-5.716,5.676l-.137,19.593" fill="none" stroke="#040505" stroke-linecap="round" stroke-linejoin="round" stroke-width="2"/>
            <line id="Line_8" data-name="Line 8" y1="13.551" x2="9.401" transform="translate(1020.662 312.693)" fill="none" stroke="#040505" stroke-linecap="round" stroke-linejoin="round" stroke-width="2"/>
            <line id="Line_9" data-name="Line 9" x1="9.401" y1="13.551" transform="translate(1101.382 312.693)" fill="none" stroke="#040505" stroke-linecap="round" stroke-linejoin="round" stroke-width="2"/>
            <g id="Group_6802" data-name="Group 6802" transform="translate(0 10)">
              <g id="Group_6818" data-name="Group 6818">
                <path id="Path_2127" data-name="Path 2127" d="M1042.516,257.853a9.282,9.282,0,0,1,0-18.557Z" transform="translate(0 -7)" fill="#040505"/>
                <path id="Path_2128" data-name="Path 2128" d="M1091,258.371a9.282,9.282,0,0,0,0-18.557Z" transform="translate(0 -7)" fill="#040505"/>
                <path id="Path_2129" data-name="Path 2129" d="M1090.161,238.66h-11.3a24.39,24.39,0,0,0-8.371,1.482l-10.123,3.7a7.467,7.467,0,0,1-5.541-.165l-11.477-4.986a23.657,23.657,0,0,1,46.807-.029Z" transform="translate(0 -7)" fill="#040505"/>
                <path id="Path_2131" data-name="Path 2131" d="M1039.463,240.734a27.609,27.609,0,0,1,55.089.507" transform="translate(0 -7)" fill="none" stroke="#040505" stroke-linecap="round" stroke-linejoin="round" stroke-width="2"/>
              </g>
            </g>
          </g>
        </g>
        <g id="Group_6807" data-name="Group 6807" transform="translate(1055.775 34.991)">
          <g id="Group_6751" data-name="Group 6751" transform="translate(80.091 135.092)">
            <path id="Path_2083" data-name="Path 2083" d="M77.078,160.607A28.528,28.528,0,1,1,105.6,189.138,28.527,28.527,0,0,1,77.078,160.607Z" transform="translate(-77.078 -132.081)" fill="#fff"/>
          </g>
          <g id="Group_6752" data-name="Group 6752" transform="translate(75.005 130.009)">
            <path id="Path_2084" data-name="Path 2084" d="M108.617,197.233a33.612,33.612,0,1,1,33.614-33.614A33.649,33.649,0,0,1,108.617,197.233Zm0-57.062a23.449,23.449,0,1,0,23.447,23.447A23.476,23.476,0,0,0,108.617,140.171Z" transform="translate(-75.005 -130.009)" fill="none" stroke="#000" stroke-width="2"/>
          </g>
          <g id="Group_6754" data-name="Group 6754" transform="translate(108.018 158.144)">
            <g id="Group_6753" data-name="Group 6753">
              <path id="Path_2085" data-name="Path 2085" d="M89.661,148.537l-1.2-3.17,10.3-3.891,3.225.462-2.027,2.712Z" transform="translate(-88.461 -141.477)" fill="#0b0e18"/>
            </g>
          </g>
          <g id="Group_6756" data-name="Group 6756" transform="translate(107.527 143.287)">
            <g id="Group_6755" data-name="Group 6755">
              <path id="Path_2086" data-name="Path 2086" d="M90.3,155.71l-1.95.069-.086-16.141.879-4.217,1.068,4.15Z" transform="translate(-88.261 -135.421)" fill="#0b0e18"/>
            </g>
          </g>
          <g id="Group_6757" data-name="Group 6757" transform="translate(103.467 158.469)">
            <path id="Path_2087" data-name="Path 2087" d="M86.606,146.759a5.153,5.153,0,1,1,5.15,5.155A5.147,5.147,0,0,1,86.606,146.759Z" transform="translate(-86.606 -141.609)" fill="#0b0e18"/>
          </g>
          <g id="Group_6758" data-name="Group 6758" transform="translate(106.957 182.012)">
            <rect id="Rectangle_1970" data-name="Rectangle 1970" width="3.175" height="4.028" fill="#0b0e18"/>
          </g>
          <g id="Group_6759" data-name="Group 6759" transform="translate(91.594 175.452)">
            <rect id="Rectangle_1971" data-name="Rectangle 1971" width="4.026" height="3.174" transform="translate(0 2.847) rotate(-45)" fill="#0b0e18"/>
          </g>
          <g id="Group_6760" data-name="Group 6760" transform="translate(86.203 161.966)">
            <rect id="Rectangle_1972" data-name="Rectangle 1972" width="4.028" height="3.171" fill="#0b0e18"/>
          </g>
          <g id="Group_6761" data-name="Group 6761" transform="translate(91.7 146.603)">
            <rect id="Rectangle_1973" data-name="Rectangle 1973" width="3.172" height="4.024" transform="translate(0 2.243) rotate(-45)" fill="#0b0e18"/>
          </g>
          <g id="Group_6762" data-name="Group 6762" transform="translate(107.105 141.209)">
            <rect id="Rectangle_1974" data-name="Rectangle 1974" width="3.17" height="4.026" fill="#0b0e18"/>
          </g>
          <g id="Group_6763" data-name="Group 6763" transform="translate(120.546 146.703)">
            <path id="Path_2088" data-name="Path 2088" d="M95.812,141.9l-2.245-2.238,2.849-2.851,2.24,2.247Z" transform="translate(-93.567 -136.813)" fill="#0b0e18"/>
          </g>
          <g id="Group_6764" data-name="Group 6764" transform="translate(127.001 162.106)">
            <rect id="Rectangle_1975" data-name="Rectangle 1975" width="4.024" height="3.178" transform="translate(0 0.006) rotate(-0.084)" fill="#0b0e18"/>
          </g>
          <g id="Group_6765" data-name="Group 6765" transform="translate(120.444 175.556)">
            <rect id="Rectangle_1976" data-name="Rectangle 1976" width="3.172" height="4.025" transform="matrix(0.706, -0.708, 0.708, 0.706, 0, 2.245)" fill="#0b0e18"/>
          </g>
        </g>
        <g id="Group_6806" data-name="Group 6806" transform="translate(-298 -686)">
          <g id="Ellipse_248" data-name="Ellipse 248" transform="translate(1384 827)" fill="#e77623" stroke="#000" stroke-width="2">
            <circle cx="10.5" cy="10.5" r="10.5" stroke="none"/>
            <circle cx="10.5" cy="10.5" r="9.5" fill="none"/>
          </g>
          <g id="Ellipse_264" data-name="Ellipse 264" transform="translate(1349 822)" fill="#e77623" stroke="#000" stroke-width="2">
            <circle cx="5.5" cy="5.5" r="5.5" stroke="none"/>
            <circle cx="5.5" cy="5.5" r="4.5" fill="none"/>
          </g>
          <g id="Polygon_8" data-name="Polygon 8" transform="matrix(-0.035, -0.999, 0.999, -0.035, 1324.177, 883.288)" fill="#fff">
            <path d="M 22.05588912963867 24.00000381469727 L 6.944109916687012 24.00000381469727 C 5.858310222625732 24.00000381469727 4.886509895324707 23.43828392028809 4.344550132751465 22.49741363525391 C 3.802589893341064 21.55655288696289 3.804260015487671 20.4340934753418 4.349020004272461 19.49484443664551 L 11.90491008758545 6.467453956604004 C 12.44779968261719 5.531423568725586 13.41792964935303 4.97261381149292 14.5 4.97261381149292 C 15.58207035064697 4.97261381149292 16.55220031738281 5.531423568725586 17.09509086608887 6.467453956604004 L 24.65097999572754 19.49484443664551 C 25.19574928283691 20.4340934753418 25.19742012023926 21.55654335021973 24.65546035766602 22.49741363525391 C 24.11348915100098 23.43828392028809 23.14168930053711 24.00000381469727 22.05588912963867 24.00000381469727 Z" stroke="none"/>
            <path d="M 14.5 5.972602844238281 C 14.15361022949219 5.972602844238281 13.2916202545166 6.069713592529297 12.76992988586426 6.969173431396484 L 5.21405029296875 19.99656295776367 C 4.690570831298828 20.89911270141602 5.037570953369141 21.69708442687988 5.211069107055664 21.9982738494873 C 5.384559631347656 22.29946327209473 5.900730133056641 23.00000381469727 6.944110870361328 23.00000381469727 L 22.05587959289551 23.00000381469727 C 23.09926986694336 23.00000381469727 23.61544036865234 22.29946327209473 23.7889289855957 21.9982738494873 C 23.9624195098877 21.69709396362305 24.30942916870117 20.89911270141602 23.78594970703125 19.99656295776367 L 16.23006057739258 6.969173431396484 C 15.70837020874023 6.069713592529297 14.84638977050781 5.972602844238281 14.5 5.972602844238281 M 14.49999904632568 3.972600936889648 C 15.84472274780273 3.972600936889648 17.18944549560547 4.636978149414063 17.96012115478516 5.965734481811523 L 25.51601028442383 18.99312400817871 C 27.06266975402832 21.6597843170166 25.13862037658691 24.9999942779541 22.05588912963867 25.00000381469727 L 6.944110870361328 25.00000381469727 C 3.861379623413086 24.9999942779541 1.937320709228516 21.6597843170166 3.483989715576172 18.99312400817871 L 11.03986930847168 5.965734481811523 C 11.81055068969727 4.636978149414063 13.15527534484863 3.972600936889648 14.49999904632568 3.972600936889648 Z" stroke="none"/>
          </g>
          <g id="Ellipse_260" data-name="Ellipse 260" transform="translate(1314 1007)" fill="none" stroke="#4483ef" stroke-width="20">
            <circle cx="33.5" cy="33.5" r="33.5" stroke="none"/>
            <circle cx="33.5" cy="33.5" r="23.5" fill="none"/>
          </g>
          <g id="Group_6736" data-name="Group 6736" transform="translate(1348 841)">
            <g id="Ellipse_258-4" data-name="Ellipse 258" transform="translate(-37 161)" fill="none" stroke="#000" stroke-width="2">
              <circle cx="33.5" cy="33.5" r="33.5" stroke="none"/>
              <circle cx="33.5" cy="33.5" r="32.5" fill="none"/>
            </g>
            <g id="Ellipse_259-4" data-name="Ellipse 259" transform="translate(-18 180)" fill="#fff" stroke="#000" stroke-width="2">
              <circle cx="14.5" cy="14.5" r="14.5" stroke="none"/>
              <circle cx="14.5" cy="14.5" r="13.5" fill="none"/>
            </g>
          </g>
        </g>
      </g>
    </g>
  </g>
</svg>
