<svg id="gcalendaricon" xmlns="http://www.w3.org/2000/svg" width="111.141" height="111.135" viewBox="0 0 111.141 111.135">
  <path id="Path_2137" data-name="Path 2137" d="M205.831,129.724a4.325,4.325,0,0,1,2.537.221,3.971,3.971,0,0,1,2.272,2.788,4.429,4.429,0,0,1-.336,2.543,3.9,3.9,0,0,1-4.4,2.1,4.018,4.018,0,0,1-3.053-3.887A3.947,3.947,0,0,1,205.831,129.724Z" transform="translate(-176.373 -125.657)" fill="#fff"/>
  <path id="Path_2138" data-name="Path 2138" d="M329.152,129.719a4.278,4.278,0,0,1,2.558.256A4.007,4.007,0,0,1,334,133.332a4.116,4.116,0,0,1-1.173,2.989,3.88,3.88,0,0,1-6.328-1.148,4.721,4.721,0,0,1-.29-2.462A3.968,3.968,0,0,1,329.152,129.719Z" transform="translate(-249.353 -125.659)" fill="#fff"/>
  <path id="Path_2139" data-name="Path 2139" d="M321.094,275.6q2.987-.014,5.972,0c-.024,7.914,0,15.829-.009,23.743q-2.976,0-5.952,0C321.1,291.426,321.122,283.512,321.094,275.6Z" transform="translate(-246.346 -212.025)" fill="#fff"/>
  <g id="Group_6821" data-name="Group 6821" transform="translate(5.308)">
    <g id="Group_6820" data-name="Group 6820">
      <path id="Path_2140" data-name="Path 2140" d="M155.893,120.5a9.3,9.3,0,0,1,4-.6q41.842,0,83.683,0a7.918,7.918,0,0,1,7.956,8.148c-.012,2.712.028,5.424-.016,8.134a8.061,8.061,0,0,0-2.826-.44q-47.343.009-94.687,0a8.728,8.728,0,0,0-2.966.437c-.04-2.817-.019-5.634-.028-8.45A7.908,7.908,0,0,1,155.893,120.5Zm19.262,3.46a3.948,3.948,0,0,0-2.985,3.764,4.018,4.018,0,0,0,3.053,3.887,3.9,3.9,0,0,0,4.4-2.1,4.429,4.429,0,0,0,.336-2.543,3.971,3.971,0,0,0-2.272-2.788A4.325,4.325,0,0,0,175.155,123.957Zm50.342-.007a3.968,3.968,0,0,0-2.944,2.991,4.721,4.721,0,0,0,.29,2.462,3.88,3.88,0,0,0,6.328,1.148,4.116,4.116,0,0,0,1.173-2.989,4.007,4.007,0,0,0-2.289-3.356A4.278,4.278,0,0,0,225.5,123.951Z" transform="translate(-151.006 -119.891)" fill="#c7c7c7"/>
    </g>
    <path id="Path_2141" data-name="Path 2141" d="M308.41,217.19a3.026,3.026,0,0,1,1.406-.138c-.028,7.94,0,15.882-.016,23.822l0,.071q-2.984-.017-5.972,0v-.07q-.005-8.235,0-16.469c-3.97,1.32-7.932,2.662-11.9,3.975-.012-1.793.009-3.586-.011-5.379C297.4,221.045,302.915,219.136,308.41,217.19Z" transform="translate(-234.387 -177.372)" fill="#c7c7c7"/>
    <path id="Path_2142" data-name="Path 2142" d="M206.272,220.053a15.354,15.354,0,0,1,8.709-2.991,16.687,16.687,0,0,1,8.974,1.957,11.14,11.14,0,0,1,4.743,5.458,14.873,14.873,0,0,1,.93,7.221c-.6,3.894-3.6,7.04-7.119,8.6a8.975,8.975,0,0,1,1.46.58,4.322,4.322,0,0,1-.933.084c-4.147-.029-8.294.028-12.437-.028-.016-.9-.037-1.8.02-2.7,2.989-.071,6.143.295,8.94-1.016a7.26,7.26,0,0,0,4.331-5.649,10.048,10.048,0,0,0-1.36-6.948,7.083,7.083,0,0,0-4.837-2.738,10.2,10.2,0,0,0-7.4,1.428,7.851,7.851,0,0,0-3.132,6.558c-1.918.051-3.838.013-5.758.019a13.968,13.968,0,0,1,.392-3.135A12.127,12.127,0,0,1,206.272,220.053Z" transform="translate(-180.829 -177.383)" fill="#c7c7c7"/>
  </g>
  <g id="Group_6822" data-name="Group 6822" transform="translate(0.203 15.847)">
    <path id="Path_2143" data-name="Path 2143" d="M143.634,159.148a8.725,8.725,0,0,1,2.966-.437q47.344,0,94.687,0a8.062,8.062,0,0,1,2.826.44,7.923,7.923,0,0,1,5.222,6.436,8.415,8.415,0,0,0-3.547-4.976,8.134,8.134,0,0,0-4.348-1.265q-47.495.033-94.992.022a8.036,8.036,0,0,0-6.309,2.842,13,13,0,0,0-1.639,2.735A7.934,7.934,0,0,1,143.634,159.148Z" transform="translate(-138.5 -158.706)" fill="#4483ef"/>
    <path id="Path_2144" data-name="Path 2144" d="M216.493,275.445l.111-.009v.07c.028,7.914.006,15.828.011,23.741q2.978,0,5.952,0c0-7.914-.016-15.829.009-23.743l0-.071.1.008a24.12,24.12,0,0,0,2.639.051q11.188-.007,22.376,0c.861,12.473,1.672,24.949,2.524,37.422a12.881,12.881,0,0,1-.13,4.288l-.036.045a7.225,7.225,0,0,0-.839,1.4,7.949,7.949,0,0,1-6.7,3.8q-44.63-.026-89.258,0a10.673,10.673,0,0,1-2.794-.2,8.081,8.081,0,0,1-4.956-3.79,7.506,7.506,0,0,0-.708-1.2l-.037-.051c-.5-1.869-.093-3.806-.031-5.7.819-12,1.6-24,2.427-36q14.874-.037,29.75-.006c.009.57.014,1.141.006,1.711,3.142.06,6.431-.316,9.407.928a7.257,7.257,0,0,1,4.3,4.539,11.3,11.3,0,0,1-.2,7.092,7.249,7.249,0,0,1-4.751,4.378,11.953,11.953,0,0,1-8.019-.372,7.33,7.33,0,0,1-4.152-4.57,9.833,9.833,0,0,1-.415-2.8c-1.9.012-3.8.008-5.7,0a12.029,12.029,0,0,0,8.041,11.625,19.016,19.016,0,0,0,9.747.972,14.168,14.168,0,0,0,8.425-4.35,12.935,12.935,0,0,0,3.135-8.057,11.529,11.529,0,0,0-2.236-7.948,12.775,12.775,0,0,0-3.77-3.1,16,16,0,0,1,2.056-.063q10.539-.009,21.078,0C214.731,275.476,215.616,275.549,216.493,275.445Z" transform="translate(-142.06 -227.779)" fill="#4483ef"/>
  </g>
  <g id="Group_6823" data-name="Group 6823" transform="translate(0 16.481)">
    <path id="Path_2145" data-name="Path 2145" d="M139.845,163.125a8.037,8.037,0,0,1,6.309-2.842q47.5,0,94.992-.022a8.135,8.135,0,0,1,4.348,1.265,8.415,8.415,0,0,1,3.547,4.976,6.67,6.67,0,0,1,.031,2.158c-1.72,12.885-3.5,25.762-5.2,38.65-7.158-.012-14.315.007-21.471,0-1.193-.009-2.388.045-3.58-.02l-.1-.008c.019-7.94-.012-15.882.015-23.822a3.027,3.027,0,0,0-1.406.138c-5.495,1.947-11,3.856-16.5,5.813.02,1.793,0,3.586.011,5.379,3.972-1.313,7.934-2.654,11.9-3.975q-.01,8.235,0,16.469l-.111.009c-8.317.062-16.637,0-24.953.033a3.15,3.15,0,0,1-1.235-.054,8.978,8.978,0,0,0-1.46-.58c3.515-1.556,6.522-4.7,7.119-8.6a14.873,14.873,0,0,0-.93-7.221,11.14,11.14,0,0,0-4.743-5.458,16.687,16.687,0,0,0-8.974-1.957,15.354,15.354,0,0,0-8.709,2.991,12.127,12.127,0,0,0-4.475,6.694,13.97,13.97,0,0,0-.392,3.135c1.92-.006,3.84.033,5.758-.019a7.851,7.851,0,0,1,3.132-6.558,10.2,10.2,0,0,1,7.4-1.428,7.083,7.083,0,0,1,4.837,2.738,10.048,10.048,0,0,1,1.36,6.948,7.26,7.26,0,0,1-4.331,5.649c-2.8,1.311-5.95.945-8.94,1.016l-.074,0c.031.9,0,1.8.02,2.7q-14.881-.023-29.765,0-2.538-18.937-5.112-37.869a8.873,8.873,0,0,1,.036-3.6A13,13,0,0,1,139.845,163.125Z" transform="translate(-138.003 -160.261)" fill="#3664d0"/>
    <path id="Path_2146" data-name="Path 2146" d="M145.206,377.862a7.5,7.5,0,0,1,.708,1.2,8.082,8.082,0,0,0,4.956,3.79,10.675,10.675,0,0,0,2.794.2q44.629.017,89.259,0a7.949,7.949,0,0,0,6.7-3.8,7.225,7.225,0,0,1,.839-1.4,7.889,7.889,0,0,1-5.2,5.438,13.425,13.425,0,0,1-4.339.38l-86.937,0a10.826,10.826,0,0,1-3.451-.341A7.9,7.9,0,0,1,145.206,377.862Z" transform="translate(-142.265 -289.02)" fill="#3664d0"/>
  </g>
</svg>
