<svg xmlns="http://www.w3.org/2000/svg" width="350.78" height="288.492" viewBox="0 0 350.78 288.492">
  <g id="Group_6734" data-name="Group 6734" transform="translate(-1098.708 -307.801)">
    <path id="Path_2058" data-name="Path 2058" d="M1274.1,472.413c-60,0-46-68.56-46-68.56,0,11.61,20.85,16.45,26.66,9.68s19.36-6.3,19.36-6.3,13.56-.48,19.36,6.3,26.69,1.93,26.66-9.68C1320.119,403.853,1334.129,472.413,1274.1,472.413Z" stroke="#040505" stroke-linecap="round" stroke-linejoin="round" stroke-width="2"/>
    <path id="Path_2059" data-name="Path 2059" d="M1281.164,395.182a7.1,7.1,0,0,1-14.2,0" fill="none" stroke="#040505" stroke-linecap="round" stroke-linejoin="round" stroke-width="2"/>
    <path id="Path_2060" data-name="Path 2060" d="M1228.083,403.853a13.014,13.014,0,0,1,0-26.018Z" fill="none" stroke="#040505" stroke-linecap="round" stroke-linejoin="round" stroke-width="2"/>
    <path id="Path_2061" data-name="Path 2061" d="M1320.118,403.853a13.014,13.014,0,0,0,0-26.018Z" fill="none" stroke="#040505" stroke-linecap="round" stroke-linejoin="round" stroke-width="2"/>
    <g id="Group_7644" data-name="Group 7644">
      <circle id="Ellipse_252" data-name="Ellipse 252" cx="11.71" cy="11.71" r="11.71" transform="translate(1236.828 372.933)" stroke-width="2" stroke="#040505" stroke-linecap="round" stroke-linejoin="round" fill="none"/>
      <circle id="Ellipse_253" data-name="Ellipse 253" cx="11.71" cy="11.71" r="11.71" transform="translate(1287.948 372.933)" stroke-width="2" stroke="#040505" stroke-linecap="round" stroke-linejoin="round" fill="none"/>
      <line id="Line_1" data-name="Line 1" x1="8.75" transform="translate(1228.078 384.643)" fill="none" stroke="#040505" stroke-linecap="round" stroke-linejoin="round" stroke-width="2"/>
      <line id="Line_2" data-name="Line 2" x1="8.75" transform="translate(1311.369 384.643)" fill="none" stroke="#040505" stroke-linecap="round" stroke-linejoin="round" stroke-width="2"/>
    </g>
    <path id="Path_2064" data-name="Path 2064" d="M1099.708,593.293h82l-11.63-111.76S1112.719,529.533,1099.708,593.293Z" fill="#e77623" stroke="#040505" stroke-linecap="round" stroke-linejoin="round" stroke-width="2"/>
    <path id="Path_2065" data-name="Path 2065" d="M1378.118,481.533s57.37,48,70.37,111.76h-82" fill="#e77623" stroke="#040505" stroke-linecap="round" stroke-linejoin="round" stroke-width="2"/>
    <path id="Path_2066" data-name="Path 2066" d="M1378.118,567.343l24.433-14.445m-232.472,14.445L1148,552.9" fill="none" stroke="#040505" stroke-linecap="round" stroke-linejoin="round" stroke-width="2"/>
    <rect id="Rectangle_1968" data-name="Rectangle 1968" width="208.03" height="132.5" rx="8" transform="translate(1170.078 462.793)" fill="#141313" stroke="#fff" stroke-width="2"/>
    <g id="Group_6733" data-name="Group 6733">
      <g id="Group_6732" data-name="Group 6732">
        <path id="Path_2071" data-name="Path 2071" d="M1309.041,333.1a18.351,18.351,0,0,0-17.819-14.011h-3.059a14.351,14.351,0,0,0-13.758-10.288h-4.039a14.349,14.349,0,0,0-13.758,10.288h-2.437a18.357,18.357,0,0,0-17.924,14.419,13.845,13.845,0,0,0,4.282,27.012h65.765a13.848,13.848,0,0,0,2.747-27.42Z" fill="#fff" stroke="#040505" stroke-linecap="round" stroke-miterlimit="10" stroke-width="2"/>
        <line id="Line_3" data-name="Line 3" x2="10.13" transform="translate(1236.247 333.508)" fill="none" stroke="#040505" stroke-linecap="round" stroke-miterlimit="10" stroke-width="2"/>
        <line id="Line_4" data-name="Line 4" x2="10.13" transform="translate(1299.034 333.071)" fill="none" stroke="#040505" stroke-linecap="round" stroke-miterlimit="10" stroke-width="2"/>
        <line id="Line_5" data-name="Line 5" y2="10.13" transform="translate(1256.829 318.935)" fill="none" stroke="#040505" stroke-linecap="round" stroke-miterlimit="10" stroke-width="2"/>
        <line id="Line_6" data-name="Line 6" y2="10.13" transform="translate(1288.046 318.935)" fill="none" stroke="#040505" stroke-linecap="round" stroke-miterlimit="10" stroke-width="2"/>
      </g>
      <path id="Path_2069" data-name="Path 2069" d="M1253.67,338.65c.238,6.289,3.324,10.432,11.065,11.065h-24.946c6.047,1.478,10.469,3.995,9.779,9.779" fill="none" stroke="#040505" stroke-linecap="round" stroke-linejoin="round" stroke-width="2"/>
      <path id="Path_2070" data-name="Path 2070" d="M1292.389,338.935c-.238,6.289-3.323,10.431-11.065,11.065h24.946c-6.047,1.477-10.468,3.994-9.779,9.779" fill="none" stroke="#040505" stroke-linecap="round" stroke-linejoin="round" stroke-width="2"/>
      <line id="Line_7" data-name="Line 7" y1="33.78" transform="translate(1273.411 326.741)" fill="none" stroke="#040505" stroke-linecap="round" stroke-linejoin="round" stroke-width="2"/>
      <path id="Path_2072" data-name="Path 2072" d="M1262.969,334.661c3.446.358,7.855.75,9.695,5.677" fill="none" stroke="#040505" stroke-linecap="round" stroke-linejoin="round" stroke-width="2"/>
      <path id="Path_2073" data-name="Path 2073" d="M1283.681,334.661c-3.446.358-7.855.75-9.7,5.677" fill="none" stroke="#040505" stroke-linecap="round" stroke-linejoin="round" stroke-width="2"/>
    </g>
    <g id="Ellipse_255" data-name="Ellipse 255" transform="translate(1265 313)" fill="#e77623" stroke="#131212" stroke-linejoin="bevel" stroke-width="2">
      <circle cx="8" cy="8" r="8" stroke="none"/>
      <circle cx="8" cy="8" r="7" fill="none"/>
    </g>
    <g id="Ellipse_256" data-name="Ellipse 256" transform="translate(1249 332)" fill="#e77623" stroke="#131212" stroke-linejoin="bevel" stroke-width="2">
      <circle cx="5" cy="5" r="5" stroke="none"/>
      <circle cx="5" cy="5" r="4" fill="none"/>
    </g>
    <g id="Ellipse_257" data-name="Ellipse 257" transform="translate(1287 332)" fill="#e77623" stroke="#131212" stroke-linejoin="bevel" stroke-width="2">
      <circle cx="5" cy="5" r="5" stroke="none"/>
      <circle cx="5" cy="5" r="4" fill="none"/>
    </g>
    <rect id="Rectangle_1969" data-name="Rectangle 1969" width="30" height="30" rx="11" transform="translate(1260.668 513.653)" stroke-width="2" stroke="#040505" stroke-linecap="round" stroke-linejoin="round" fill="#fff"/>
  </g>
</svg>
