<svg id="headerright" xmlns="http://www.w3.org/2000/svg" xmlns:xlink="http://www.w3.org/1999/xlink" width="1001" height="785" viewBox="0 0 1001 785">
  <defs>
    <clipPath id="clip-path">
      <rect id="Rectangle_2068" data-name="Rectangle 2068" width="1001" height="785" transform="translate(65.606 630.993)" fill="#fff"/>
    </clipPath>
    <clipPath id="clip-path-2">
      <path id="Path_2147" data-name="Path 2147" d="M794.58-382.855c-4.959,0-9.983.142-15.006.43-131.472,3.867-193.34,108.272-193.34,228.142,0,50.268,23.2,123.737,3.867,170.142C570.764,66.128,508.894,81.595,470.227,116.4c-34.1,34.105-49.23,76.054-49.282,117.75v.437c.112,85.8,63.982,170.428,157.554,183.426,34.5,5.949,94.637-2.743,161.7-11.439,150.88-19.563,336.83-39.125,344.863,108.109-18.747,70.819,17.478,102.37,63.356,102.509h.615c39.162-.124,85.194-23.023,110.039-63.841,24.887-40.885,33.431-94.025,33.517-148.532V403.1c-.1-63.52-11.564-128.743-21.917-178.437-41.746-212.51-213.817-607.508-476.053-607.522h-.034" transform="translate(-420.945 382.855)" fill="#e0e3e3"/>
    </clipPath>
    <clipPath id="clip-path-3">
      <path id="Path_2147-2" data-name="Path 2147" d="M671.408-382.855c-3.324,0-6.692.1-10.059.288-88.131,2.592-129.6,72.579-129.6,152.933,0,33.7,15.553,82.946,2.592,114.053-12.962,33.7-54.436,44.066-80.356,67.4-22.861,22.862-33,50.982-33.036,78.933v.293C421.02,88.553,463.835,145.285,526.56,154c23.13,3.988,63.439-1.839,108.391-7.668C736.092,133.216,860.742,120.1,866.127,218.8c-12.567,47.473,11.716,68.623,42.47,68.716h.412c26.252-.083,57.109-15.433,73.764-42.795,16.683-27.407,22.41-63.029,22.468-99.567v-1.148c-.069-42.58-7.752-86.3-14.692-119.614-27.984-142.454-143.33-407.238-319.118-407.247h-.023" fill="rgba(235,238,238,0.55)"/>
    </clipPath>
  </defs>
  <g id="Mask_Group_24" data-name="Mask Group 24" transform="translate(-65.606 -630.993)" clip-path="url(#clip-path)">
    <g id="Group_7668" data-name="Group 7668">
      <g id="Group_6840" data-name="Group 6840" transform="matrix(-0.809, 0.588, -0.588, -0.809, 1408.497, 251.891)" opacity="0.21">
        <g id="Group_6825" data-name="Group 6825" transform="translate(420.945 -382.855)" clip-path="url(#clip-path-2)">
          <rect id="Rectangle_1996" data-name="Rectangle 1996" width="871.639" height="1000.044" transform="translate(0 0)" fill="#e0e3e3"/>
        </g>
      </g>
      <g id="Group_6833" data-name="Group 6833" transform="matrix(0.891, -0.454, 0.454, 0.891, -131.975, 1457.891)">
        <g id="Group_6825-2" data-name="Group 6825" clip-path="url(#clip-path-3)">
          <rect id="Rectangle_1996-2" data-name="Rectangle 1996" width="584.296" height="670.371" transform="translate(420.945 -382.855)" fill="rgba(235,238,238,0.55)"/>
        </g>
      </g>
    </g>
  </g>
</svg>
