<svg id="headerright" xmlns="http://www.w3.org/2000/svg" xmlns:xlink="http://www.w3.org/1999/xlink" width="1001" height="785" viewBox="0 0 1001 785">
  <defs>
    <clipPath id="clip-path">
      <rect id="Rectangle_2068" data-name="Rectangle 2068" width="1001" height="785" transform="translate(65.606 630.993)" fill="#fff"/>
    </clipPath>
    <clipPath id="clip-path-2">
      <path id="Path_2147" data-name="Path 2147" d="M789.682-382.855c-4.894,0-9.852.14-14.809.424-129.748,3.815-190.806,106.817-190.806,225.078,0,49.593,22.9,122.075,3.816,167.856C568.8,60.1,507.741,75.357,469.581,109.691,435.925,143.338,421,184.723,420.945,225.86v.431c.11,84.644,63.143,168.139,155.489,180.962,34.053,5.869,93.4-2.707,159.576-11.285,148.9-19.3,332.414-38.6,340.342,106.657-18.5,69.868,17.249,101,62.525,101.132h.607c38.649-.122,84.077-22.713,108.6-62.983,24.561-40.336,32.992-92.762,33.078-146.537v-1.69c-.1-62.667-11.413-127.014-21.63-176.041-41.2-209.655-211.014-599.349-469.812-599.362h-.034" transform="translate(-420.945 382.855)" fill="#e0e3e3"/>
    </clipPath>
    <clipPath id="clip-path-3">
      <path id="Path_2147-2" data-name="Path 2147" d="M671.408-382.855c-3.324,0-6.692.1-10.059.288-88.131,2.592-129.6,72.579-129.6,152.933,0,33.7,15.553,82.946,2.592,114.053-12.962,33.7-54.436,44.066-80.356,67.4-22.861,22.862-33,50.982-33.036,78.933v.293C421.02,88.553,463.835,145.285,526.56,154c23.13,3.988,63.439-1.839,108.391-7.668C736.092,133.216,860.742,120.1,866.127,218.8c-12.567,47.473,11.716,68.623,42.47,68.716h.412c26.252-.083,57.109-15.433,73.764-42.795,16.683-27.407,22.41-63.029,22.468-99.567v-1.148c-.069-42.58-7.752-86.3-14.692-119.614-27.984-142.454-143.33-407.238-319.118-407.247h-.023" fill="rgba(235,238,238,0.55)"/>
    </clipPath>
  </defs>
  <g id="Mask_Group_24" data-name="Mask Group 24" transform="translate(-65.606 -630.993)" clip-path="url(#clip-path)">
    <g id="Group_7668" data-name="Group 7668">
      <g id="Group_6840" data-name="Group 6840" transform="matrix(-0.809, 0.588, -0.588, -0.809, 1391.358, 247.741)" opacity="0.21">
        <g id="Group_6825" data-name="Group 6825" transform="translate(420.945 -382.855)" clip-path="url(#clip-path-2)">
          <rect id="Rectangle_1996" data-name="Rectangle 1996" width="860.213" height="986.613" transform="translate(0 0)" fill="#e0e3e3"/>
        </g>
      </g>
      <g id="Group_6833" data-name="Group 6833" transform="matrix(0.891, -0.454, 0.454, 0.891, -131.975, 1457.891)">
        <g id="Group_6825-2" data-name="Group 6825" clip-path="url(#clip-path-3)">
          <rect id="Rectangle_1996-2" data-name="Rectangle 1996" width="584.296" height="670.371" transform="translate(420.945 -382.855)" fill="rgba(235,238,238,0.55)"/>
        </g>
      </g>
    </g>
  </g>
</svg>
