<svg id="logo" xmlns="http://www.w3.org/2000/svg" width="214.956" height="96.244" viewBox="0 0 214.956 96.244">
  <path id="Path_6963" data-name="Path 6963" d="M172.495,22.672a5.783,5.783,0,1,0-5.784,5.784A5.782,5.782,0,0,0,172.495,22.672Z" transform="translate(11.042 1.983)" fill="#1a1818"/>
  <path id="Path_6964" data-name="Path 6964" d="M149.415,21.611V34.136a23.82,23.82,0,0,0-6.514-3.86,19.651,19.651,0,0,0-6.957-1.219q-6.853,0-11.092,3.366a10.72,10.72,0,0,0-4.245,8.823,10.194,10.194,0,0,0,4.321,8.365,17.479,17.479,0,0,0,11.016,3.344,19.588,19.588,0,0,0,6.957-1.228,24.342,24.342,0,0,0,6.514-3.854V60.428a46.765,46.765,0,0,1-7.54,1.964,45.186,45.186,0,0,1-7.58.638,45.8,45.8,0,0,1-8.835-.8,29.664,29.664,0,0,1-7.44-2.468,25.515,25.515,0,0,1-9.971-7.953,18.128,18.128,0,0,1-3.43-10.784,17.855,17.855,0,0,1,2.177-8.768,22.487,22.487,0,0,1,6.56-7.177,29.279,29.279,0,0,1,9.351-4.581,41.359,41.359,0,0,1,11.587-1.518,43.655,43.655,0,0,1,7.58.66A48.441,48.441,0,0,1,149.415,21.611Z" transform="translate(-104.619 6.284)" fill="#1a1818"/>
  <g id="Group_7646" data-name="Group 7646" transform="translate(139.122 33.136)">
    <path id="Path_6965" data-name="Path 6965" d="M150.433,26.78c0-.986-.024-1.887-.067-2.7a20.133,20.133,0,0,0-.192-2.034h7.553a12.75,12.75,0,0,1,.2,1.738c.043.764.067,1.616.067,2.55h.189a11.568,11.568,0,0,1,1.243-1.7,8.148,8.148,0,0,1,1.756-1.478,9.242,9.242,0,0,1,2.507-1.072,12.8,12.8,0,0,1,3.414-.406,11.722,11.722,0,0,1,5.372,1.142,10.164,10.164,0,0,1,3.65,3.06,13.352,13.352,0,0,1,2.083,4.462,20.861,20.861,0,0,1,.687,5.424q0,6.711-3.057,10.359a10.483,10.483,0,0,1-8.508,3.653,14.04,14.04,0,0,1-3.216-.33,8.922,8.922,0,0,1-2.471-.959,7.789,7.789,0,0,1-1.79-1.4,8.681,8.681,0,0,1-1.17-1.588h-.128v15.45h-8.118Zm8.475,12.686a9.108,9.108,0,0,0,1.1,2.9,5.317,5.317,0,0,0,4.755,2.605,4.868,4.868,0,0,0,4.685-2.455,13.882,13.882,0,0,0,1.322-6.566,16.278,16.278,0,0,0-1.194-7.11q-1.2-2.345-4.685-2.349a5.7,5.7,0,0,0-2.975.733,5.584,5.584,0,0,0-1.973,2.019,9.228,9.228,0,0,0-1.063,2.972,18.919,18.919,0,0,0-.327,3.592A17.908,17.908,0,0,0,158.907,39.467Z" transform="translate(-150.173 -21.317)" fill="#1a1818"/>
    <path id="Path_6966" data-name="Path 6966" d="M161.469,21.559h7.351V50.172h-7.351Z" transform="translate(-126.971 -21.559)" fill="#1a1818"/>
    <path id="Path_6967" data-name="Path 6967" d="M169.222,23.632a39.467,39.467,0,0,1,4.392-1.359,27.2,27.2,0,0,1,6.627-.678,24.651,24.651,0,0,1,6.673.754,9.225,9.225,0,0,1,4.071,2.229,7.99,7.99,0,0,1,2.034,3.552,17.635,17.635,0,0,1,.577,4.718v12.24a22.35,22.35,0,0,0,.168,2.834q.169,1.324.305,2.074h-7.577a5.046,5.046,0,0,1-.406-1.735c-.043-.657-.067-1.338-.067-2.04h-.134a17.031,17.031,0,0,1-1.725,1.664,10.494,10.494,0,0,1-4.67,2.19,16.8,16.8,0,0,1-3.347.3,15.442,15.442,0,0,1-3.924-.492,9.307,9.307,0,0,1-3.317-1.551,8.322,8.322,0,0,1-2.3-2.605,6.963,6.963,0,0,1-.883-3.515,7.545,7.545,0,0,1,1.383-4.688,9.689,9.689,0,0,1,3.818-2.91A20.181,20.181,0,0,1,176.7,33.1a60.1,60.1,0,0,1,7.333-.418h1.689V31.7a6.275,6.275,0,0,0-.336-2.037,4.175,4.175,0,0,0-1.121-1.7,5.932,5.932,0,0,0-2-1.17,8.788,8.788,0,0,0-3.042-.452,16.667,16.667,0,0,0-3.005.266,19.385,19.385,0,0,0-2.709.681,21.957,21.957,0,0,0-2.232.867,9.521,9.521,0,0,0-1.591.907Zm16.5,12.659h-.739a44.278,44.278,0,0,0-4.786.229,12.583,12.583,0,0,0-3.573.867,5.539,5.539,0,0,0-2.254,1.664,4.042,4.042,0,0,0-.776,2.529,3.845,3.845,0,0,0,1.451,3.1,5.819,5.819,0,0,0,3.869,1.212c2.52,0,4.279-.705,5.293-2.119a9.971,9.971,0,0,0,1.515-5.888Z" transform="translate(-118.235 -21.485)" fill="#1a1818"/>
  </g>
  <g id="Group_7647" data-name="Group 7647" transform="translate(77.016 33.05)">
    <path id="Path_6968" data-name="Path 6968" d="M140.23,25.636H129.837v-4.1h29.215v4.1H148.723V49.781H140.23Z" transform="translate(-129.837 -21.531)" fill="#1a1818"/>
    <rect id="Rectangle_2051" data-name="Rectangle 2051" width="29.139" height="3.71" transform="translate(0.079 2.595)" fill="#1a1818"/>
  </g>
  <path id="Path_6969" data-name="Path 6969" d="M148.276,35.7A13.964,13.964,0,1,0,134.31,49.659,13.966,13.966,0,0,0,148.276,35.7Z" transform="translate(-72.314 11.934)" fill="#1a1818"/>
  <path id="Path_6970" data-name="Path 6970" d="M167.733,35.67A13.963,13.963,0,1,0,153.77,49.63,13.963,13.963,0,0,0,167.733,35.67Z" transform="translate(-32.343 11.881)" fill="#1a1818"/>
  <path id="Path_6971" data-name="Path 6971" d="M158.092,24.672a13.963,13.963,0,1,0-13.963,13.963A13.963,13.963,0,0,0,158.092,24.672Z" transform="translate(-52.145 -10.709)" fill="#1a1818"/>
  <path id="Path_6972" data-name="Path 6972" d="M174.957,47.042A13.961,13.961,0,1,0,161,61,13.962,13.962,0,0,0,174.957,47.042Z" transform="translate(-17.499 35.239)" fill="#1a1818"/>
  <g id="Group_7648" data-name="Group 7648" transform="translate(54.743 6.713)">
    <path id="Path_6973" data-name="Path 6973" d="M137.826,31.568a7.641,7.641,0,1,1-7.641-7.638A7.642,7.642,0,0,1,137.826,31.568Z" transform="translate(-122.544 9.734)" fill="#f87f1b"/>
    <path id="Path_6974" data-name="Path 6974" d="M157.285,31.542a7.641,7.641,0,1,1-7.638-7.638A7.638,7.638,0,0,1,157.285,31.542Z" transform="translate(-82.575 9.681)" fill="#f87f1b"/>
    <path id="Path_6975" data-name="Path 6975" d="M147.645,20.545A7.641,7.641,0,1,1,140,12.907,7.64,7.64,0,0,1,147.645,20.545Z" transform="translate(-102.376 -12.907)" fill="#f87f1b"/>
    <path id="Path_6976" data-name="Path 6976" d="M164.51,42.917a7.64,7.64,0,1,1-7.641-7.641A7.64,7.64,0,0,1,164.51,42.917Z" transform="translate(-67.729 33.039)" fill="#f87f1b"/>
  </g>
</svg>
