<svg id="logo" xmlns="http://www.w3.org/2000/svg" width="162.4" height="72.713" viewBox="0 0 162.4 72.713">
  <path id="Path_6963" data-name="Path 6963" d="M169.667,21.258a4.369,4.369,0,1,0-4.37,4.37A4.369,4.369,0,0,0,169.667,21.258Z" transform="translate(-31.004 -2.631)" fill="#1a1818"/>
  <path id="Path_6964" data-name="Path 6964" d="M138.463,20.969v9.462a18,18,0,0,0-4.922-2.916,14.847,14.847,0,0,0-5.256-.921,13.085,13.085,0,0,0-8.38,2.543A8.1,8.1,0,0,0,116.7,35.8a7.7,7.7,0,0,0,3.265,6.32,13.205,13.205,0,0,0,8.322,2.527,14.8,14.8,0,0,0,5.256-.928,18.39,18.39,0,0,0,4.922-2.912v9.485a35.331,35.331,0,0,1-5.7,1.484,34.138,34.138,0,0,1-5.727.482,34.6,34.6,0,0,1-6.675-.6,22.411,22.411,0,0,1-5.621-1.864,19.277,19.277,0,0,1-7.533-6.008,13.7,13.7,0,0,1-2.591-8.147,13.49,13.49,0,0,1,1.645-6.624,16.989,16.989,0,0,1,4.956-5.422,22.12,22.12,0,0,1,7.065-3.461,31.247,31.247,0,0,1,8.754-1.147,32.982,32.982,0,0,1,5.727.5A36.6,36.6,0,0,1,138.463,20.969Z" transform="translate(-104.619 0.106)" fill="#1a1818"/>
  <g id="Group_7646" data-name="Group 7646" transform="translate(105.107 25.034)">
    <path id="Path_6965" data-name="Path 6965" d="M150.369,25.533c0-.745-.018-1.426-.051-2.04a15.213,15.213,0,0,0-.145-1.537h5.706a9.632,9.632,0,0,1,.148,1.313c.032.577.051,1.221.051,1.927h.143a8.74,8.74,0,0,1,.939-1.285,6.156,6.156,0,0,1,1.327-1.117,6.983,6.983,0,0,1,1.894-.81,9.668,9.668,0,0,1,2.58-.307,8.856,8.856,0,0,1,4.059.863,7.679,7.679,0,0,1,2.757,2.312,10.088,10.088,0,0,1,1.574,3.371,15.761,15.761,0,0,1,.519,4.1q0,5.07-2.31,7.826a7.92,7.92,0,0,1-6.428,2.76,10.607,10.607,0,0,1-2.43-.249,6.741,6.741,0,0,1-1.867-.724,5.884,5.884,0,0,1-1.352-1.059,6.558,6.558,0,0,1-.884-1.2h-.1V51.347h-6.133Zm6.4,9.585A6.881,6.881,0,0,0,157.6,37.3a4.017,4.017,0,0,0,3.592,1.968,3.678,3.678,0,0,0,3.539-1.855,10.488,10.488,0,0,0,1-4.961,12.3,12.3,0,0,0-.9-5.371q-.9-1.772-3.539-1.774a4.3,4.3,0,0,0-2.247.554,4.219,4.219,0,0,0-1.49,1.525,6.971,6.971,0,0,0-.8,2.245,14.294,14.294,0,0,0-.247,2.713A13.529,13.529,0,0,0,156.772,35.117Z" transform="translate(-150.173 -21.405)" fill="#1a1818"/>
    <path id="Path_6966" data-name="Path 6966" d="M161.469,21.559h5.554V43.176h-5.554Z" transform="translate(-135.406 -21.559)" fill="#1a1818"/>
    <path id="Path_6967" data-name="Path 6967" d="M168.366,23.134a29.817,29.817,0,0,1,3.318-1.027,20.548,20.548,0,0,1,5.007-.512,18.624,18.624,0,0,1,5.041.57,6.969,6.969,0,0,1,3.076,1.684,6.037,6.037,0,0,1,1.537,2.683,13.323,13.323,0,0,1,.436,3.565v9.248a16.884,16.884,0,0,0,.127,2.141q.128,1,.231,1.567h-5.724a3.812,3.812,0,0,1-.307-1.311c-.032-.5-.051-1.011-.051-1.541h-.1a12.869,12.869,0,0,1-1.3,1.257,7.928,7.928,0,0,1-3.528,1.654,12.69,12.69,0,0,1-2.529.226,11.666,11.666,0,0,1-2.965-.371,7.032,7.032,0,0,1-2.506-1.172,6.288,6.288,0,0,1-1.735-1.968,5.261,5.261,0,0,1-.667-2.656,5.7,5.7,0,0,1,1.045-3.542,7.32,7.32,0,0,1,2.884-2.2,15.247,15.247,0,0,1,4.365-1.144,45.4,45.4,0,0,1,5.54-.316h1.276v-.738a4.74,4.74,0,0,0-.254-1.539,3.154,3.154,0,0,0-.847-1.283,4.482,4.482,0,0,0-1.509-.884,6.639,6.639,0,0,0-2.3-.341,12.592,12.592,0,0,0-2.27.2,14.645,14.645,0,0,0-2.047.515,16.586,16.586,0,0,0-1.687.655,7.193,7.193,0,0,0-1.2.685ZM180.833,32.7h-.558a33.452,33.452,0,0,0-3.616.173,9.506,9.506,0,0,0-2.7.655,4.185,4.185,0,0,0-1.7,1.257,3.053,3.053,0,0,0-.586,1.91,2.9,2.9,0,0,0,1.1,2.34,4.4,4.4,0,0,0,2.923.916c1.9,0,3.233-.533,4-1.6a7.533,7.533,0,0,0,1.144-4.449Z" transform="translate(-129.846 -21.512)" fill="#1a1818"/>
  </g>
  <g id="Group_7647" data-name="Group 7647" transform="translate(58.186 24.97)">
    <path id="Path_6968" data-name="Path 6968" d="M137.689,24.632h-7.852v-3.1h22.072v3.1h-7.8V42.874h-6.417Z" transform="translate(-129.837 -21.531)" fill="#1a1818"/>
    <rect id="Rectangle_2051" data-name="Rectangle 2051" width="22.014" height="2.803" transform="translate(0.059 1.96)" fill="#1a1818"/>
  </g>
  <path id="Path_6969" data-name="Path 6969" d="M141.447,32.282A10.55,10.55,0,1,0,130.9,42.831,10.551,10.551,0,0,0,141.447,32.282Z" transform="translate(-84.058 3.703)" fill="#1a1818"/>
  <path id="Path_6970" data-name="Path 6970" d="M160.905,32.256A10.549,10.549,0,1,0,150.356,42.8,10.549,10.549,0,0,0,160.905,32.256Z" transform="translate(-58.617 3.669)" fill="#1a1818"/>
  <path id="Path_6971" data-name="Path 6971" d="M151.264,21.258a10.549,10.549,0,1,0-10.549,10.549A10.549,10.549,0,0,0,151.264,21.258Z" transform="translate(-71.221 -10.709)" fill="#1a1818"/>
  <path id="Path_6972" data-name="Path 6972" d="M168.13,43.628a10.548,10.548,0,1,0-10.547,10.549A10.549,10.549,0,0,0,168.13,43.628Z" transform="translate(-49.169 18.536)" fill="#1a1818"/>
  <path id="Path_6973" data-name="Path 6973" d="M134.09,29.7a5.773,5.773,0,1,1-5.773-5.771A5.774,5.774,0,0,1,134.09,29.7Z" transform="translate(-81.185 6.575)" fill="#f87f1b"/>
  <path id="Path_6974" data-name="Path 6974" d="M153.549,29.675a5.773,5.773,0,1,1-5.771-5.771A5.77,5.77,0,0,1,153.549,29.675Z" transform="translate(-55.746 6.541)" fill="#f87f1b"/>
  <path id="Path_6975" data-name="Path 6975" d="M143.909,18.678a5.773,5.773,0,1,1-5.773-5.771A5.772,5.772,0,0,1,143.909,18.678Z" transform="translate(-68.349 -7.836)" fill="#f87f1b"/>
  <path id="Path_6976" data-name="Path 6976" d="M160.775,41.049A5.772,5.772,0,1,1,155,35.276,5.772,5.772,0,0,1,160.775,41.049Z" transform="translate(-46.297 21.408)" fill="#f87f1b"/>
</svg>
