<svg xmlns="http://www.w3.org/2000/svg" width="59.611" height="62.154" viewBox="0 0 59.611 62.154">
  <g id="one" transform="translate(0.5 0.5)">
    <path id="Path_7010" data-name="Path 7010" d="M34.125-60.129V0H21.205V-45.527a15.472,15.472,0,0,1-2.522,1.784,26.041,26.041,0,0,1-3.1,1.518,27.651,27.651,0,0,1-3.4,1.148A24.864,24.864,0,0,1,8.7-40.4v-10.91a53.9,53.9,0,0,0,9.516-3.773,54.152,54.152,0,0,0,8.08-5.045ZM59.555,1.025A7.56,7.56,0,0,1,54.223-.943a6.33,6.33,0,0,1-2.133-4.84,6.094,6.094,0,0,1,2.194-4.84A8.1,8.1,0,0,1,59.76-12.51,7.8,7.8,0,0,1,65.194-10.6a6.213,6.213,0,0,1,2.112,4.819,6.25,6.25,0,0,1-2.153,4.9A8.13,8.13,0,0,1,59.555,1.025Z" transform="translate(-8.695 60.129)" fill="none" stroke="#4483ef" stroke-width="1"/>
  </g>
</svg>
