<svg id="smallg" xmlns="http://www.w3.org/2000/svg" xmlns:xlink="http://www.w3.org/1999/xlink" width="28.015" height="28.587" viewBox="0 0 28.015 28.587">
  <defs>
    <clipPath id="clip-path">
      <path id="Path_2054" data-name="Path 2054" d="M285.172,183.431a16.422,16.422,0,0,0-.26-2.924H271.45v5.529h7.693a6.575,6.575,0,0,1-2.852,4.314v3.586h4.619a13.94,13.94,0,0,0,4.262-10.506Zm0,0" transform="translate(-271.45 -180.507)" fill="#fff" clip-rule="evenodd"/>
    </clipPath>
    <clipPath id="clip-path-2">
      <path id="Path_2055" data-name="Path 2055" d="M125.145,258.273a13.646,13.646,0,0,0,9.46-3.463l-4.619-3.586a8.623,8.623,0,0,1-12.838-4.528h-4.775v3.7a14.288,14.288,0,0,0,12.773,7.874Zm0,0" transform="translate(-112.372 -246.695)" fill="#fff" clip-rule="evenodd"/>
    </clipPath>
    <clipPath id="clip-path-3">
      <path id="Path_2056" data-name="Path 2056" d="M99.734,142.065a8.45,8.45,0,0,1,0-5.432v-3.7H94.958a14.311,14.311,0,0,0,0,12.838l4.775-3.7Zm0,0" transform="translate(-93.438 -132.93)" fill="#fff" clip-rule="evenodd"/>
    </clipPath>
    <clipPath id="clip-path-4">
      <path id="Path_2057" data-name="Path 2057" d="M125.145,40.546a7.721,7.721,0,0,1,5.464,2.138l4.1-4.1a13.736,13.736,0,0,0-9.564-3.723,14.288,14.288,0,0,0-12.773,7.875l4.775,3.7a8.518,8.518,0,0,1,8-5.893Zm0,0" transform="translate(-112.372 -34.861)" fill="#fff" clip-rule="evenodd"/>
    </clipPath>
  </defs>
  <g id="Group_6724" data-name="Group 6724" transform="translate(14.294 11.695)">
    <g id="Group_6723" data-name="Group 6723" clip-path="url(#clip-path)">
      <rect id="Rectangle_1963" data-name="Rectangle 1963" width="29.603" height="29.311" transform="translate(-7.941 -7.941)" fill="#fff"/>
    </g>
  </g>
  <g id="Group_6726" data-name="Group 6726" transform="translate(1.52 17.009)">
    <g id="Group_6725" data-name="Group 6725" transform="translate(0)" clip-path="url(#clip-path-2)">
      <rect id="Rectangle_1964" data-name="Rectangle 1964" width="38.115" height="27.459" transform="translate(-7.941 -7.941)" fill="#fff"/>
    </g>
  </g>
  <g id="Group_6728" data-name="Group 6728" transform="translate(0 7.875)">
    <g id="Group_6727" data-name="Group 6727" transform="translate(0 0)" clip-path="url(#clip-path-3)">
      <rect id="Rectangle_1965" data-name="Rectangle 1965" width="22.177" height="28.72" transform="translate(-7.941 -7.941)" fill="#fff"/>
    </g>
  </g>
  <g id="Group_6730" data-name="Group 6730" transform="translate(1.52)">
    <g id="Group_6729" data-name="Group 6729" transform="translate(0)" clip-path="url(#clip-path-4)">
      <rect id="Rectangle_1966" data-name="Rectangle 1966" width="38.219" height="27.459" transform="translate(-7.941 -7.941)" fill="#fff"/>
    </g>
  </g>
</svg>
