<svg xmlns="http://www.w3.org/2000/svg" width="63.508" height="61.826" viewBox="0 0 63.508 61.826">
  <g id="three" transform="translate(0.5 0.5)">
    <path id="Path_7012" data-name="Path 7012" d="M4.8-1.928V-13.207A22.766,22.766,0,0,0,18.58-8.9q4.963,0,7.731-2.133A7.081,7.081,0,0,0,29.08-16.98a6.76,6.76,0,0,0-3.425-6.07q-3.425-2.133-9.413-2.133H10.787v-9.926h5.045q11.484,0,11.484-7.629,0-7.178-8.818-7.178A20.1,20.1,0,0,0,7.014-46.1V-56.684A31.718,31.718,0,0,1,21.451-59.8q9.023,0,14.048,4.061A12.923,12.923,0,0,1,40.523-45.2q0,11.525-11.689,14.438v.205a15.892,15.892,0,0,1,9.844,4.532,12.779,12.779,0,0,1,3.609,9.208A15.781,15.781,0,0,1,36.258-3.773q-6.029,4.8-16.652,4.8Q10.5,1.025,4.8-1.928ZM59.555,1.025A7.56,7.56,0,0,1,54.223-.943a6.33,6.33,0,0,1-2.133-4.84,6.094,6.094,0,0,1,2.194-4.84A8.1,8.1,0,0,1,59.76-12.51,7.8,7.8,0,0,1,65.194-10.6a6.213,6.213,0,0,1,2.112,4.819,6.25,6.25,0,0,1-2.153,4.9A8.13,8.13,0,0,1,59.555,1.025Z" transform="translate(-4.799 59.801)" fill="none" stroke="#4483ef" stroke-width="1"/>
  </g>
</svg>
