<svg xmlns="http://www.w3.org/2000/svg" width="64.902" height="61.826" viewBox="0 0 64.902 61.826">
  <g id="two" transform="translate(0.5 0.5)">
    <path id="Path_7011" data-name="Path 7011" d="M17.6-10.746H42.533V0H3.4V-4.43a20.618,20.618,0,0,1,1.518-8.1A26.881,26.881,0,0,1,8.736-18.97a33.087,33.087,0,0,1,5.024-5.045q2.728-2.194,5.188-3.958,2.584-1.846,4.532-3.527a25.826,25.826,0,0,0,3.281-3.343,12.709,12.709,0,0,0,1.989-3.363,10,10,0,0,0,.656-3.63,7.3,7.3,0,0,0-2.133-5.7q-2.133-1.928-6.521-1.928-7.588,0-14.52,6.029v-11.4A31.168,31.168,0,0,1,23.543-59.8a25.562,25.562,0,0,1,8.019,1.169,16.964,16.964,0,0,1,6.009,3.343,14.257,14.257,0,0,1,3.753,5.271,17.787,17.787,0,0,1,1.292,6.911,19.487,19.487,0,0,1-1.251,7.219,22.182,22.182,0,0,1-3.322,5.742,30.136,30.136,0,0,1-4.778,4.737q-2.707,2.153-5.619,4.163-1.969,1.395-3.794,2.769a35.968,35.968,0,0,0-3.22,2.707,14.7,14.7,0,0,0-2.215,2.6A4.5,4.5,0,0,0,17.6-10.746ZM59.555,1.025A7.56,7.56,0,0,1,54.223-.943a6.33,6.33,0,0,1-2.133-4.84,6.094,6.094,0,0,1,2.194-4.84A8.1,8.1,0,0,1,59.76-12.51,7.8,7.8,0,0,1,65.194-10.6a6.213,6.213,0,0,1,2.112,4.819,6.25,6.25,0,0,1-2.153,4.9A8.13,8.13,0,0,1,59.555,1.025Z" transform="translate(-3.404 59.801)" fill="none" stroke="#4483ef" stroke-width="1"/>
  </g>
</svg>
